<?xml version="1.0" encoding="utf-8" standalone="yes"?>
<!DOCTYPE svg PUBLIC "-//W3C//DTD SVG 1.1//EN" "http://www.w3.org/Graphics/SVG/1.1/DTD/svg11.dtd">
<svg width="630" height="545" viewBox="0 0 630 545" style="fill:none;stroke:none;fill-rule:evenodd;clip-rule:evenodd;stroke-linecap:round;stroke-linejoin:round;stroke-miterlimit:1.5;" version="1.1" xmlns="http://www.w3.org/2000/svg" xmlns:xlink="http://www.w3.org/1999/xlink"><style class="text-font-style fontImports" data-font-family="Roboto">@import url('https://fonts.googleapis.com/css2?family=Roboto:wght@400;700&amp;display=block');</style><g id="items" style="isolation: isolate"><g id="blend" style="mix-blend-mode: normal"><g id="g-root-sy_back_cu_1lxdoohlpi0oz-fill" data-item-order="-65422" transform="translate(259.16741943359375, 98.16561889648438)"><g id="sy_back_cu_1lxdoohlpi0oz-fill" stroke="none" fill="#545454"><g><path d="M 15.0326 333.574974C 15.9629 334.145974 17.0468 334.477974 18.1904 334.477974L 19.2095 334.477974C 24.2441 340.891374 30.6852 346.882374 37.1417 352.016474L 29.0881 352.294174C 25.7584 352.427274 23.1879 355.241874 23.1879 358.575574L 23.1879 359.986174C 23.3211 363.313174 26.1447 365.881674 29.4744 365.755274L 55.9034 364.842574C 61.4301 368.046874 67.2932 371.027874 73.3864 373.909574L 63.9578 397.962974C 46.3568 389.782074 28.2306 378.829674 14.9511 364.256774C 7.5094 354.626374 9.223 343.340674 15.0326 333.574974ZM 18.508993 207.484692C 17.421793 207.484692 16.388493 207.184592 15.489793 206.664292C 16.002293 205.803192 16.215993 204.953892 16.788793 204.118592L 16.829593 204.059192L 16.788893 203.999992C 9.719993 214.309792 6.973393 226.752992 15.073293 237.235192C 26.601893 249.886692 41.556193 259.725692 56.875693 267.475292C 62.251193 264.755992 67.643693 262.304292 72.901393 260.096092C 76.947393 258.447692 82.252393 256.256492 88.285993 253.590692C 76.796393 248.554392 66.002593 243.601692 56.067093 237.845092L 29.772693 238.761892C 26.442993 238.888392 23.619393 236.319892 23.486193 232.992892L 23.486193 231.582192C 23.486193 228.248592 26.056793 225.433892 29.386493 225.300892L 37.296993 225.021192C 30.838893 219.888792 24.393793 213.898292 19.353893 207.484692L 18.508993 207.484692ZM 15.235454 110.003595C 7.178554 99.577095 9.808554 87.063395 16.854354 76.799995C 16.306754 77.617195 15.551154 78.809795 15.061554 79.650695C 16.578254 80.525295 17.545354 80.525295 18.648854 80.525295L 19.833554 80.525295C 24.875754 86.939095 31.030054 92.932695 37.489054 98.064495L 29.387554 98.344695C 26.057754 98.477795 23.487254 101.292395 23.487254 104.626095L 23.487254 106.036695C 23.620454 109.363695 26.444054 111.932195 29.773754 111.805795L 56.264154 110.888195C 66.239854 116.666395 77.309154 121.322595 88.847954 126.378595L 89.179754 126.525195L 88.847954 126.670595C 82.749454 129.367795 77.387554 131.582795 73.306454 133.245495C 68.187754 135.395195 62.941254 137.775895 57.707054 140.409495C 42.243154 132.628695 26.871054 122.772395 15.235454 110.003595ZM 135.807454 179.499995L 148.189454 180.001995C 151.398454 180.127995 154.012454 177.729995 154.138454 174.522595L 154.138454 173.244995C 154.138454 170.037795 151.708454 167.349595 148.498454 167.216495L 113.768454 165.834295C 106.001954 161.787995 97.720954 158.040095 89.178954 154.294295C 95.140354 151.663195 100.379454 149.498795 104.386554 147.866195C 109.694154 145.637095 115.139454 143.159795 120.565454 140.409495C 135.832454 148.147695 150.702454 157.992395 162.193454 170.601695C 170.292454 181.083995 167.418454 193.588995 160.349454 203.898995C 160.344454 203.890995 160.338454 203.882995 160.332454 203.874995C 160.338454 203.865995 160.344454 203.857995 160.349454 203.849995C 161.885454 201.609995 163.217454 199.268995 164.278454 196.869995C 163.199454 195.026995 161.570454 193.748995 159.336454 193.748995L 152.319454 193.748995C 147.220454 188.480995 141.368454 183.607995 135.807454 179.499995ZM 113.794533 38.8982L 148.498333 40.2793C 151.708133 40.4124 154.138833 43.1006 154.138833 46.3078L 154.138833 47.5854C 154.012333 50.7926 151.448433 53.2214 148.238633 53.0949L 135.890133 52.6035C 141.449733 56.7126 147.235233 61.5442 152.331733 66.8122L 159.336433 66.8122C 161.576933 66.8122 163.761333 68.2291 164.837533 70.0804C 168.650933 61.6721 169.213533 51.826 162.442533 43.3864C 149.163033 28.8136 131.036833 18.181 113.435733 10L 104.007233 34.0534C 107.344533 35.6318 110.612733 37.2399 113.794533 38.8982Z"></path></g></g></g><g id="g-root-sy_5_cu_1lxdoohlpi0p0-fill" data-item-order="-65418" transform="translate(264.1939392089844, 379.1650390625)"><g id="sy_5_cu_1lxdoohlpi0p0-fill" stroke="none" fill="#4b533a"><g><path d="M 10 52.5716C 10.9317 53.1449 12.0179 53.4784 13.164 53.4784L 83.6541 53.4784L 83.6541 39.7645L 20.0605 39.7645C 16.9742 42.9646 14.1441 46.3246 11.7744 49.7808C 11.1474 50.6952 10.5544 51.6264 10 52.5716ZM 41.4468 22.0036L 83.6541 23.6834L 83.6541 10.8575L 62.1063 10C 57.6559 12.2322 53.3569 14.5455 49.2547 16.9926C 46.8717 18.4182 44.2262 20.1019 41.4468 22.0036ZM 18.1615 77.5759C 18.1615 74.2423 20.7321 71.4276 24.0618 71.2945L 83.6986 69.2384L 83.6986 82.7095L 24.448 84.7556C 21.1183 84.882 18.2947 82.3136 18.1615 78.9866L 18.1615 77.5759Z"></path></g></g></g><g id="g-root-sy_4_cu_1lxdoohlpi0p1-fill" data-item-order="-65414" transform="translate(338.013916015625, 252.9658203125)"><g id="sy_4_cu_1lxdoohlpi0p1-fill" stroke="none" fill="#68403f"><g><path d="M 69.652 12.374C 72.8619 12.5071 75.2926 15.1953 75.2926 18.4026L 75.2926 19.6801C 75.1661 22.8874 72.6022 25.3161 69.3923 25.1897L 10.000004 22.8259L 10.000004 10L 69.652 12.374ZM 78.8627 52.6209C 79.8051 51.4275 80.6989 50.2193 81.5354 48.9991C 83.0713 46.7592 84.5356 44.1467 85.5964 41.7473C 84.6143 40.2268 82.6713 38.9458 80.4375 38.9458L 10.000004 38.9069L 10.000004 52.6209L 78.8627 52.6209ZM 65.3074 66.4553L 10.000004 68.3809L 10 81.852L 45.9823 80.5926C 51.7414 77.0178 58.6982 72.1444 65.3074 66.4553Z"></path></g></g></g><g id="g-root-sy_3_cu_1d1qofllpi1hq-fill" data-item-order="-65410" transform="translate(264.3424072265625, 252.16552734375)"><g id="sy_3_cu_1d1qofllpi1hq-fill" stroke="none" fill="#5c4938"><g><path d="M 10.000007 52.6336C 10.898631 53.1539 12.103431 53.454 13.190731 53.454L 83.680831 53.454L 83.680831 39.74L 20.284231 39.74C 17.073131 43.0393 14.074831 46.5121 11.623231 50.0879C 11.050431 50.9232 10.512531 51.7724 10.000007 52.6336ZM 41.933131 21.9974L 83.680831 23.659L 83.680831 10.8331L 62.747331 10C 58.077931 12.3271 53.572131 14.7402 49.281431 17.2997C 47.030131 18.6465 44.544531 20.2237 41.933131 21.9974ZM 18.321731 77.5515C 18.321731 74.2178 20.892231 71.4032 24.222031 71.2701L 83.680831 69.214L 83.680831 82.6851L 24.608231 84.7312C 21.278531 84.8576 18.454931 82.2892 18.321731 78.9621L 18.321731 77.5515Z"></path></g></g></g><g id="g-root-sy_2_cu_1d1qofllpi1hr-fill" data-item-order="-65406" transform="translate(338.01373291015625, 126.07073974609375)"><g id="sy_2_cu_1d1qofllpi1hr-fill" stroke="none" fill="#54502f"><g><path d="M 69.652 12.374C 72.8619 12.5071 75.2926 15.1953 75.2926 18.4026L 75.2926 19.6801C 75.1661 22.8874 72.6022 25.3161 69.3923 25.1897L 10.000005 22.8259L 10.000005 10L 69.652 12.374ZM 79.467 52.6209C 80.3141 51.5352 81.1207 50.4377 81.88 49.3302C 83.4557 47.0322 84.8166 44.6281 85.8905 42.1635C 84.8338 40.2434 82.7819 38.9069 80.4902 38.9069L 10.000005 38.9069L 10.000005 52.6209L 79.467 52.6209ZM 66.0837 66.4415L 10.000005 68.3809L 10 81.852L 46.9214 80.5732C 52.6853 76.9594 59.5694 72.0937 66.0837 66.4415Z"></path></g></g></g><g id="g-root-sy_1_cu_1hhk6k1lpi1hc-fill" data-item-order="-65402" transform="translate(264.225830078125, 125.21466064453125)"><g id="sy_1_cu_1hhk6k1lpi1hc-fill" stroke="none" fill="#3e4e69"><g><path d="M 20.0608 39.7625C 16.9982 42.9437 14.1971 46.2553 11.843 49.6887C 11.1882 50.6438 10.5755 51.6202 9.999992 52.6087C 10.9079 53.1433 12.006 53.4765 13.1095 53.4765L 83.7879 53.4765L 83.7879 39.7625L 20.0608 39.7625ZM 41.4923 22.0049L 83.7879 23.6815L 83.7879 10.8556L 62.1184 10C 59.1294 11.5014 56.209 13.0397 53.3708 14.6308C 52.0273 15.3839 50.7022 16.1489 49.3971 16.9275C 46.9864 18.3697 44.3071 20.076 41.4923 22.0049ZM 18.4288 77.574C 18.4288 74.2403 20.9994 71.4257 24.3291 71.2926L 83.7879 69.2365L 83.7879 82.7076L 24.7154 84.7537C 21.3856 84.8801 18.562 82.3117 18.4288 78.9847L 18.4288 77.574Z"></path></g></g></g><g id="g-root-sy_top_cu_1hhk6k1lpi1hd-fill" data-item-order="-65398" transform="translate(253.71395874023438, 97.9996337890625)"><g id="sy_top_cu_1hhk6k1lpi1hd-fill" stroke="none" fill="#545454"><g><path d="M 20.4045 297.921985C 35.9784 280.830985 58.2186 268.719685 78.4599 260.218685C 82.541 258.555885 87.9029 256.340985 94.0014 253.643785C 106.2456 248.278685 117.958 242.917885 128.4 236.689385C 139.533 230.029085 156.395 217.734985 165.88 203.901185C 172.949 193.591385 175.695 181.148185 167.595 170.665985C 176.381 180.307785 178 189.578885 178 203.901185C 178 218.223585 176.381 227.494685 167.595 237.136485C 152.021 254.227185 129.781 266.338385 109.54 274.838985C 105.4589 276.501985 100.0999 278.715985 94.0014 281.413985C 81.7572 286.778985 70.0416 292.139985 59.6004 298.368985C 48.4673 305.028985 31.6052 317.322985 22.1201 331.156985C 15.0512 341.466985 12.3046 353.909985 20.4045 364.391985C 11.6185 354.749985 10 345.478985 10 331.156985C 10 316.833985 11.6185 307.562985 20.4045 297.921985ZM 20.466001 171.12746C 36.090401 154.03646 58.402701 141.92516 78.709501 133.42416C 82.803801 131.76136 88.183101 129.54646 94.301401 126.84926C 106.585201 121.48416 118.335801 116.12336 128.810801 109.89486C 139.979801 103.23456 156.896801 90.94046 166.412801 77.10666C 173.504801 66.79686 176.259801 54.35366 168.133801 43.87146C 176.948801 53.51326 178.571801 62.78436 178.571801 77.10666C 178.571801 91.42906 176.948801 100.70016 168.133801 110.34196C 152.509801 127.43266 130.196801 139.54386 109.890301 148.04446C 105.796001 149.70746 100.419601 151.92146 94.301401 154.61946C 82.017501 159.98446 70.264001 165.34546 59.788901 171.57446C 48.619801 178.23446 31.703001 190.52846 22.187201 204.36246C 15.095401 214.67246 12.392001 227.14346 20.697701 237.59746C 11.883201 227.95546 10.027801 218.68446 10.027801 204.36246C 10.027801 190.03946 11.651501 180.76846 20.466001 171.12746ZM 22.335693 76.930801C 31.820801 63.097 48.767395 50.802902 59.90039 44.142601C 61.205597 43.364097 62.5307 42.598999 63.874176 41.845901C 68.737884 39.119301 73.843292 36.5476 79.121582 34.050903L 69.687591 10C 52.093994 18.180099 33.978088 29.129196 20.704498 43.695595C 11.918487 53.337295 10.299988 62.608398 10.299988 76.930801C 10.299988 91.253097 11.918487 100.5242 20.704498 110.166C 12.604583 99.683792 15.266784 87.2406 22.335693 76.930801Z"></path></g></g></g><g id="g-root-tx_explorin_4oslddlpi0pb-fill" data-item-order="0" transform="translate(80, 38)"><g id="tx_explorin_4oslddlpi0pb-fill" stroke="none" fill="#f4f4f4"><g><text style="font-style: normal; font-variant-caps: normal; font-weight: normal; font-width: normal; font-size: 20px; line-height: normal; font-family: Roboto, sans-serif; font-size-adjust: none; font-kerning: auto; font-variant-alternates: normal; font-variant-ligatures: normal; font-variant-numeric: normal; font-variant-east-asian: normal; font-variant-position: normal; font-variant-emoji: normal; font-feature-settings: normal; font-optical-sizing: auto; font-variation-settings: normal; white-space: pre;"><tspan x="16.2" y="34" dominant-baseline="ideographic">Exploring the Core Principles of Holistic Siddha Medicine</tspan></text></g></g></g><g id="g-root-tx_panchabo_djt4j5lpi32e-fill" data-item-order="0" transform="translate(74, 134)"><g id="tx_panchabo_djt4j5lpi32e-fill" stroke="none" fill="#f4f4f4"><g><text style="font-style: normal; font-variant-caps: normal; font-weight: normal; font-width: normal; font-size: 20px; line-height: normal; font-family: Roboto, sans-serif; font-size-adjust: none; font-kerning: auto; font-variant-alternates: normal; font-variant-ligatures: normal; font-variant-numeric: normal; font-variant-east-asian: normal; font-variant-position: normal; font-variant-emoji: normal; font-feature-settings: normal; font-optical-sizing: auto; font-variation-settings: normal; white-space: pre;"><tspan x="37" y="34" dominant-baseline="ideographic">Pancha </tspan><tspan x="22" y="58" dominant-baseline="ideographic">Bootham</tspan></text></g></g></g><g id="g-root-ic_1_1urrtwxlp17gn-fill" data-item-order="0" transform="translate(182, 134)"></g><g id="g-root-ic_ride_1qdtr1tlozt3g-fill" data-item-order="0" transform="translate(446, 134)"></g><g id="g-root-tx_tridosha_hzmmnllpi2a5-fill" data-item-order="0" transform="translate(506, 146)"><g id="tx_tridosha_hzmmnllpi2a5-fill" stroke="none" fill="#f4f4f4"><g><text style="font-style: normal; font-variant-caps: normal; font-weight: normal; font-width: normal; font-size: 20px; line-height: normal; font-family: Roboto, sans-serif; font-size-adjust: none; font-kerning: auto; font-variant-alternates: normal; font-variant-ligatures: normal; font-variant-numeric: normal; font-variant-east-asian: normal; font-variant-position: normal; font-variant-emoji: normal; font-feature-settings: normal; font-optical-sizing: auto; font-variation-settings: normal; white-space: pre;"><tspan x="12" y="34" dominant-baseline="ideographic">Tridosha</tspan></text></g></g></g><g id="g-root-tx_siddhars_qv9mwhlpi1hg-fill" data-item-order="0" transform="translate(86, 278)"><g id="tx_siddhars_qv9mwhlpi1hg-fill" stroke="none" fill="#f4f4f4"><g><text style="font-style: normal; font-variant-caps: normal; font-weight: normal; font-width: normal; font-size: 20px; line-height: normal; font-family: Roboto, sans-serif; font-size-adjust: none; font-kerning: auto; font-variant-alternates: normal; font-variant-ligatures: normal; font-variant-numeric: normal; font-variant-east-asian: normal; font-variant-position: normal; font-variant-emoji: normal; font-feature-settings: normal; font-optical-sizing: auto; font-variation-settings: normal; white-space: pre;"><tspan x="13" y="34" dominant-baseline="ideographic">Siddhars</tspan></text></g></g></g><g id="g-root-ic_pose_8vvjg1lozr4b-fill" data-item-order="0" transform="translate(182, 266)"></g><g id="g-root-ic_lipo_8vvga9lpkutl-fill" data-item-order="0" transform="translate(446, 266)"></g><g id="g-root-tx_marma_vb350xlpi0p7-fill" data-item-order="0" transform="translate(506, 278)"><g id="tx_marma_vb350xlpi0p7-fill" stroke="none" fill="#f4f4f4"><g><text style="font-style: normal; font-variant-caps: normal; font-weight: normal; font-width: normal; font-size: 20px; line-height: normal; font-family: Roboto, sans-serif; font-size-adjust: none; font-kerning: auto; font-variant-alternates: normal; font-variant-ligatures: normal; font-variant-numeric: normal; font-variant-east-asian: normal; font-variant-position: normal; font-variant-emoji: normal; font-feature-settings: normal; font-optical-sizing: auto; font-variation-settings: normal; white-space: pre;"><tspan x="12" y="34" dominant-baseline="ideographic">Marma</tspan></text></g></g></g><g id="g-root-tx_herbalre_18lx6b5lpi2a2-fill" data-item-order="0" transform="translate(14, 410)"><g id="tx_herbalre_18lx6b5lpi2a2-fill" stroke="none" fill="#f4f4f4"><g><text style="font-style: normal; font-variant-caps: normal; font-weight: normal; font-width: normal; font-size: 20px; line-height: normal; font-family: Roboto, sans-serif; font-size-adjust: none; font-kerning: auto; font-variant-alternates: normal; font-variant-ligatures: normal; font-variant-numeric: normal; font-variant-east-asian: normal; font-variant-position: normal; font-variant-emoji: normal; font-feature-settings: normal; font-optical-sizing: auto; font-variation-settings: normal; white-space: pre;"><tspan x="12" y="34" dominant-baseline="ideographic">Herbal Remedies</tspan></text></g></g></g><g id="g-root-ic_jar_1uu9n3llpi22o-fill" data-item-order="0" transform="translate(182, 398)"></g><g id="g-root-sy_back_cu_1lxdoohlpi0oz-stroke" data-item-order="-65422" transform="translate(259.16741943359375, 98.16561889648438)"><g id="sy_back_cu_1lxdoohlpi0oz-stroke" fill="none" stroke-linecap="round" stroke-linejoin="round" stroke-miterlimit="4" stroke="#b7b7b7" stroke-width="2"><g><path d="M 15.0326 333.574974C 15.9629 334.145974 17.0468 334.477974 18.1904 334.477974L 19.2095 334.477974C 24.2441 340.891374 30.6852 346.882374 37.1417 352.016474L 29.0881 352.294174C 25.7584 352.427274 23.1879 355.241874 23.1879 358.575574L 23.1879 359.986174C 23.3211 363.313174 26.1447 365.881674 29.4744 365.755274L 55.9034 364.842574C 61.4301 368.046874 67.2932 371.027874 73.3864 373.909574L 63.9578 397.962974C 46.3568 389.782074 28.2306 378.829674 14.9511 364.256774C 7.5094 354.626374 9.223 343.340674 15.0326 333.574974ZM 18.508993 207.484692C 17.421793 207.484692 16.388493 207.184592 15.489793 206.664292C 16.002293 205.803192 16.215993 204.953892 16.788793 204.118592L 16.829493 204.059192L 16.788893 203.999992C 9.719993 214.309792 6.973393 226.752992 15.073293 237.235192C 26.601893 249.886692 41.556193 259.725692 56.875693 267.475292C 62.251193 264.755992 67.643693 262.304292 72.901393 260.096092C 76.947393 258.447692 82.252393 256.256492 88.285993 253.590692C 76.796393 248.554392 66.002593 243.601692 56.067093 237.845092L 29.772693 238.761892C 26.442993 238.888392 23.619393 236.319892 23.486193 232.992892L 23.486193 231.582192C 23.486193 228.248592 26.056793 225.433892 29.386493 225.300892L 37.296993 225.021192C 30.838893 219.888792 24.393793 213.898292 19.353893 207.484692L 18.508993 207.484692ZM 15.235454 110.003595C 7.178654 99.577095 9.808554 87.063395 16.854354 76.799995C 16.306754 77.617195 15.551154 78.809795 15.061554 79.650695C 16.578254 80.525295 17.545354 80.525295 18.648754 80.525295L 19.833554 80.525295C 24.875754 86.939095 31.030054 92.932695 37.489054 98.064495L 29.387554 98.344695C 26.057754 98.477795 23.487254 101.292395 23.487254 104.626095L 23.487254 106.036695C 23.620454 109.363695 26.444054 111.932195 29.773754 111.805795L 56.264154 110.888195C 66.239854 116.666395 77.309154 121.322595 88.847954 126.378595L 89.179754 126.525195L 88.847954 126.670595C 82.749454 129.367795 77.387554 131.582795 73.306454 133.245495C 68.187754 135.395195 62.941254 137.775895 57.707054 140.409495C 42.243154 132.628695 26.871054 122.772395 15.235454 110.003595ZM 135.807554 179.499495L 148.189054 180.001495C 151.398954 180.127895 154.012354 177.729795 154.138954 174.522595L 154.138954 173.244995C 154.138954 170.037795 151.708254 167.349595 148.498354 167.216495L 113.768154 165.834295C 106.001954 161.787995 97.720954 158.040095 89.178954 154.294295C 95.140354 151.663195 100.379454 149.498795 104.386554 147.866195C 109.694154 145.637095 115.139154 143.159795 120.565354 140.409495C 135.832954 148.147695 150.702854 157.992395 162.193054 170.601695C 170.292954 181.083895 167.418554 193.589395 160.349654 203.899295C 160.344054 203.890995 160.338454 203.882795 160.332754 203.874595C 160.338454 203.866295 160.344054 203.858095 160.349754 203.849895C 161.885554 201.609895 163.217354 199.269195 164.278254 196.869795C 163.199754 195.027395 161.570354 193.749395 159.336454 193.749395L 152.319154 193.749395C 147.220154 188.480595 141.368254 183.608295 135.807554 179.499495ZM 113.794533 38.8982L 148.498333 40.2793C 151.708133 40.4124 154.138833 43.1006 154.138833 46.3078L 154.138833 47.5854C 154.012333 50.7926 151.448433 53.2214 148.238633 53.0949L 135.890133 52.6035C 141.449733 56.7126 147.235233 61.5442 152.331733 66.8122L 159.336433 66.8122C 161.576933 66.8122 163.761333 68.2291 164.837533 70.0804C 168.650933 61.6721 169.213533 51.826 162.442533 43.3864C 149.163033 28.8136 131.036833 18.181 113.435733 10L 104.007233 34.0534C 107.344533 35.6318 110.612733 37.2399 113.794533 38.8982Z"></path></g></g></g><g id="g-root-sy_5_cu_1lxdoohlpi0p0-stroke" data-item-order="-65418" transform="translate(264.1939392089844, 379.1650390625)"><g id="sy_5_cu_1lxdoohlpi0p0-stroke" fill="none" stroke-linecap="round" stroke-linejoin="round" stroke-miterlimit="4" stroke="#a6da37" stroke-width="2"><g><path d="M 10 52.5716C 10.9317 53.1449 12.0179 53.4784 13.164 53.4784L 83.6541 53.4784L 83.6541 39.7645L 20.0605 39.7645C 16.9742 42.9646 14.1441 46.3246 11.7744 49.7808C 11.1474 50.6952 10.5544 51.6264 10 52.5716ZM 41.4468 22.0036L 83.6541 23.6834L 83.6541 10.8575L 62.1063 10C 57.6559 12.2322 53.3569 14.5455 49.2547 16.9926C 46.8717 18.4182 44.2262 20.1019 41.4468 22.0036ZM 18.1615 77.5759C 18.1615 74.2423 20.7321 71.4276 24.0618 71.2945L 83.6986 69.2384L 83.6986 82.7095L 24.448 84.7556C 21.1183 84.882 18.2947 82.3136 18.1615 78.9866L 18.1615 77.5759Z"></path></g></g></g><g id="g-root-sy_4_cu_1lxdoohlpi0p1-stroke" data-item-order="-65414" transform="translate(338.013916015625, 252.9658203125)"><g id="sy_4_cu_1lxdoohlpi0p1-stroke" fill="none" stroke-linecap="round" stroke-linejoin="round" stroke-miterlimit="4" stroke="#fb6762" stroke-width="2"><g><path d="M 69.652 12.374C 72.8619 12.5071 75.2926 15.1953 75.2926 18.4025L 75.2926 19.6801C 75.1661 22.8874 72.6022 25.3161 69.3923 25.1897L 10 22.8259L 10 10L 69.652 12.374ZM 78.8627 52.6209C 79.8051 51.4275 80.6989 50.2193 81.5354 48.9991C 83.0713 46.7592 84.5356 44.1467 85.5964 41.7473C 84.6142 40.2268 82.6713 38.9458 80.4375 38.9458L 10 38.9069L 10 52.6209L 78.8627 52.6209ZM 65.3074 66.4553L 10 68.3809L 10 81.852L 45.9823 80.5926C 51.7414 77.0178 58.6982 72.1444 65.3074 66.4553Z"></path></g></g></g><g id="g-root-sy_3_cu_1d1qofllpi1hq-stroke" data-item-order="-65410" transform="translate(264.3424072265625, 252.16552734375)"><g id="sy_3_cu_1d1qofllpi1hq-stroke" fill="none" stroke-linecap="round" stroke-linejoin="round" stroke-miterlimit="4" stroke="#f79438" stroke-width="2"><g><path d="M 10.000031 52.6336C 10.898631 53.1539 12.103431 53.454 13.190731 53.454L 83.680831 53.454L 83.680831 39.74L 20.284231 39.74C 17.073131 43.0393 14.074831 46.5121 11.623131 50.0879C 11.050431 50.9232 10.512531 51.7724 10.000031 52.6336ZM 41.933131 21.9974L 83.680831 23.659L 83.680831 10.8331L 62.747331 10C 58.077931 12.3271 53.572131 14.7402 49.281431 17.2997C 47.030131 18.6465 44.544531 20.2237 41.933131 21.9974ZM 18.321731 77.5515C 18.321731 74.2178 20.892231 71.4032 24.222031 71.2701L 83.680831 69.214L 83.680831 82.6851L 24.608231 84.7312C 21.278531 84.8576 18.454931 82.2892 18.321731 78.9621L 18.321731 77.5515Z"></path></g></g></g><g id="g-root-sy_2_cu_1d1qofllpi1hr-stroke" data-item-order="-65406" transform="translate(338.01373291015625, 126.07073974609375)"><g id="sy_2_cu_1d1qofllpi1hr-stroke" fill="none" stroke-linecap="round" stroke-linejoin="round" stroke-miterlimit="4" stroke="#ffe711" stroke-width="2"><g><path d="M 69.652 12.374C 72.8619 12.5071 75.2926 15.1953 75.2926 18.4025L 75.2926 19.6801C 75.1661 22.8874 72.6022 25.3161 69.3923 25.1897L 10 22.8259L 10 10L 69.652 12.374ZM 79.467 52.6209C 80.3141 51.5352 81.1207 50.4377 81.88 49.3302C 83.4557 47.0322 84.8166 44.6281 85.8905 42.1635C 84.8338 40.2434 82.7819 38.9069 80.4902 38.9069L 10 38.9069L 10 52.6209L 79.467 52.6209ZM 66.0837 66.4415L 10 68.3809L 10 81.852L 46.9214 80.5732C 52.6853 76.9594 59.5694 72.0937 66.0837 66.4415Z"></path></g></g></g><g id="g-root-sy_1_cu_1hhk6k1lpi1hc-stroke" data-item-order="-65402" transform="translate(264.225830078125, 125.21466064453125)"><g id="sy_1_cu_1hhk6k1lpi1hc-stroke" fill="none" stroke-linecap="round" stroke-linejoin="round" stroke-miterlimit="4" stroke="#4f91fc" stroke-width="2"><g><path d="M 20.0608 39.7625C 16.9982 42.9437 14.1971 46.2553 11.843 49.6887C 11.1882 50.6438 10.5755 51.6202 10 52.6087C 10.9079 53.1433 12.006 53.4765 13.1095 53.4765L 83.7879 53.4765L 83.7879 39.7625L 20.0608 39.7625ZM 41.4923 22.0049L 83.7879 23.6815L 83.7879 10.8556L 62.1184 10C 59.1294 11.5014 56.209 13.0397 53.3708 14.6308C 52.0273 15.3839 50.7022 16.1489 49.3971 16.9275C 46.9864 18.3697 44.3071 20.076 41.4923 22.0049ZM 18.4288 77.574C 18.4288 74.2403 20.9994 71.4257 24.3291 71.2926L 83.7879 69.2365L 83.7879 82.7076L 24.7154 84.7537C 21.3856 84.8801 18.562 82.3117 18.4288 78.9847L 18.4288 77.574Z"></path></g></g></g><g id="g-root-sy_top_cu_1hhk6k1lpi1hd-stroke" data-item-order="-65398" transform="translate(253.71395874023438, 97.9996337890625)"><g id="sy_top_cu_1hhk6k1lpi1hd-stroke" fill="none" stroke-linecap="round" stroke-linejoin="round" stroke-miterlimit="4" stroke="#b7b7b7" stroke-width="2"><g><path d="M 78.4599 260.218685C 58.2186 268.719685 35.9784 280.830785 20.4045 297.921585C 11.6185 307.563285 10 316.834485 10 331.156785C 10 345.479085 11.6185 354.750285 20.4045 364.391985C 12.3046 353.909785 15.0512 341.466585 22.1201 331.156785C 31.6052 317.322985 48.4673 305.028885 59.6004 298.368585C 70.0416 292.140085 81.7572 286.778785 94.0014 281.413685C 100.0999 278.716485 105.4589 276.502085 109.54 274.839385C 129.7813 266.338385 152.0215 254.227185 167.5954 237.136485C 176.3814 227.494685 177.9999 218.223585 177.9999 203.901185C 177.9999 189.578885 176.3814 180.307785 167.5954 170.665985C 175.6953 181.148185 172.9487 193.591385 165.8798 203.901185C 156.3947 217.734985 139.5326 230.029085 128.3995 236.689385C 117.9583 242.917885 106.2456 248.278685 94.0014 253.643785C 87.9029 256.340985 82.541 258.555885 78.4599 260.218685ZM 78.709501 133.42416C 58.402701 141.92516 36.090401 154.03626 20.466001 171.12706C 11.651501 180.76876 10.027801 190.03996 10.027801 204.36226C 10.027801 218.68456 11.883201 227.95576 20.697701 237.59746C 12.392001 227.14336 15.095401 214.67206 22.187201 204.36226C 31.703001 190.52846 48.619801 178.23436 59.788901 171.57406C 70.264001 165.34556 82.017501 159.98426 94.301401 154.61916C 100.419601 151.92196 105.796001 149.70756 109.890301 148.04486C 130.197201 139.54386 152.509501 127.43266 168.133801 110.34196C 176.948401 100.70016 178.572101 91.42906 178.572101 77.10666C 178.572101 62.78436 176.948401 53.51326 168.133801 43.87146C 176.260001 54.35366 173.504501 66.79686 166.412701 77.10666C 156.896901 90.94046 139.980101 103.23456 128.811001 109.89486C 118.335901 116.12336 106.585201 121.48416 94.301401 126.84926C 88.183101 129.54646 82.803801 131.76136 78.709501 133.42416ZM 22.335693 76.930801C 31.820801 63.097 48.767395 50.802902 59.90039 44.142601C 61.205597 43.364097 62.5307 42.598999 63.874176 41.845901C 68.737884 39.119301 73.843292 36.5476 79.121582 34.050903L 69.687591 10.000397C 52.093994 18.180099 33.978088 29.129196 20.704498 43.695595C 11.918487 53.337295 10.299988 62.608398 10.299988 76.930801C 10.299988 91.253097 11.918487 100.5242 20.704498 110.166C 12.604583 99.683792 15.266784 87.2406 22.335693 76.930801Z"></path></g></g></g><g id="g-root-tx_explorin_4oslddlpi0pb-stroke" data-item-order="0" transform="translate(80, 38)"></g><g id="g-root-tx_panchabo_djt4j5lpi32e-stroke" data-item-order="0" transform="translate(74, 134)"></g><g id="g-root-ic_1_1urrtwxlp17gn-stroke" data-item-order="0" transform="translate(182, 134)"><g id="ic_1_1urrtwxlp17gn-stroke" fill="none" stroke-linecap="round" stroke-linejoin="round" stroke-miterlimit="4" stroke="#4f91fc" stroke-width="2"><g><path d="M 40.068001 16.158001C 42.144009 13.332461 45.911339 12.340409 49.109707 13.777046C 52.308071 15.213684 54.068832 18.688837 53.335579 22.117512C 52.602325 25.546186 49.574203 27.997194 46.068001 28L 18.438 28C 14.931797 27.997194 11.903675 25.546186 11.170423 22.117512C 10.43717 18.688837 12.19793 15.213684 15.396296 13.777046C 18.594662 12.340409 22.361996 13.332461 24.438 16.158001M 24.431999 16.158001C 25.771141 13.02923 28.846693 11.000175 32.25 11.000175C 35.653305 11.000175 38.728859 13.02923 40.068001 16.158001M 51.849998 34.908001C 52.800434 33.931107 54.289951 33.717667 55.476471 34.388344C 56.662994 35.059021 57.248302 36.445251 56.901501 37.763344C 56.554699 39.081436 55.362953 40.000111 54 40L 48 40C 45.933754 39.998997 44.208313 38.424408 44.018803 36.366867C 43.829292 34.30933 45.238087 32.44606 47.26939 32.06765C 49.30069 31.689241 51.285915 32.920242 51.849998 34.908001M 23 28L 28.549999 32.587997C 28.973463 32.937328 29.234726 33.445358 29.272547 33.993004C 29.310368 34.540657 29.121422 35.079777 28.75 35.484001L 23.251999 41.461998C 22.153936 42.654903 21.884584 44.392658 22.57 45.862L 24.034 49M 30 28L 35.672001 31.782C 37.509701 33.007172 38.006607 35.489925 36.781998 37.327999L 34.134003 41.299999C 33.834587 41.747688 33.728386 42.297215 33.839436 42.82423C 33.950485 43.351242 34.269394 43.811195 34.723999 44.099998L 42.493999 49M 51 40L 50.341999 41.316002C 49.49728 43.005379 47.906376 44.198372 46.048 44.535999L 37.793999 46.034M 12.08 49C 11.783403 49.001652 11.502275 49.132572 11.310138 49.358524C 11.118 49.58448 11.033961 49.882996 11.08 50.176003C 11.663104 54.099613 15.033295 57.003426 19 57L 46 57C 49.964428 57.00045 53.33123 54.097363 53.914001 50.175999C 53.960041 49.882996 53.875999 49.58448 53.683865 49.358524C 53.491726 49.132572 53.210598 49.001652 52.914001 49Z"></path></g></g></g><g id="g-root-ic_ride_1qdtr1tlozt3g-stroke" data-item-order="0" transform="translate(446, 134)"><g id="ic_ride_1qdtr1tlozt3g-stroke" fill="none" stroke-linecap="round" stroke-linejoin="round" stroke-miterlimit="4" stroke="#ffe711" stroke-width="2"><g><path d="M 19.897999 27.384001C 19.053282 27.385164 18.298914 26.855492 18.013157 26.060575C 17.7274 25.265659 17.971876 24.376923 18.624001 23.84L 32.223999 12.208C 32.963081 11.598071 34.030922 11.598071 34.77 12.208L 48.369999 23.84C 49.022125 24.376923 49.266602 25.265659 48.980843 26.060575C 48.695087 26.855492 47.94072 27.385164 47.096001 27.384001ZM 33.515999 27.384001L 33.515999 56.25M 12 56.25L 56 56.25M 41.021118 42.860371L 52.051624 38.18615C 52.687267 37.916794 53.42091 38.213726 53.690266 38.849369L 54.153786 39.943214C 55.500561 43.121414 54.015896 46.789631 50.837692 48.13641L 49.014626 48.908947C 45.838291 50.250137 42.175835 48.765755 40.829567 45.591576L 40.366051 44.49773C 40.096695 43.862091 40.393627 43.128445 41.029266 42.859093ZM 46.312 39.989998L 40.757999 27.384001M 18.035091 48.910786L 16.221228 48.142151C 14.692369 47.497177 13.482748 46.270706 12.858982 44.733074C 12.235212 43.195442 12.248507 41.472874 12.895927 39.945053L 13.35945 38.851204C 13.628806 38.215565 14.36245 37.918633 14.99809 38.187988L 26.028593 42.862209C 26.664236 43.131565 26.96117 43.865208 26.691814 44.500851L 26.228294 45.594692C 24.881516 48.7729 21.213295 50.257561 18.035091 48.910786ZM 20.74 39.989998L 26.294001 27.384001"></path></g></g></g><g id="g-root-tx_tridosha_hzmmnllpi2a5-stroke" data-item-order="0" transform="translate(506, 146)"></g><g id="g-root-tx_siddhars_qv9mwhlpi1hg-stroke" data-item-order="0" transform="translate(86, 278)"></g><g id="g-root-ic_pose_8vvjg1lozr4b-stroke" data-item-order="0" transform="translate(182, 266)"><g id="ic_pose_8vvjg1lozr4b-stroke" fill="none" stroke-linecap="round" stroke-linejoin="round" stroke-miterlimit="4" stroke="#f79438" stroke-width="2"><g><path d="M 34 23.498001C 37.313709 23.498001 40 20.811708 40 17.498001C 40 14.184292 37.313709 11.498 34 11.498C 30.686293 11.498 28 14.184292 28 17.498001C 28 20.811708 30.686293 23.498001 34 23.498001ZM 23 43.683998C 21 43.683998 19.4 42.084 19.4 40.084C 19.4 38.084 21 36.484001 23 36.484001C 23.76 31.188 28.518 26.51 34 26.51C 39.535999 26.51 44.307999 31.114 45 36.484001C 47 36.484001 48.599998 38.084 48.599998 40.084C 48.599998 41.344002 47.966 42.444 46.995998 43.088001M 10 10M 36.32 47.992001L 23.136 43.841999C 20.939999 43.110001 18.498001 44.330002 17.765999 46.771999C 17.034 48.967999 18.254 51.41 20.695999 52.141998L 33.877998 56.292C 36.073997 57.023998 38.517998 55.804001 39.248001 53.362C 39.736 51.166 38.515999 48.723999 36.32 47.992001ZM 44.419998 52.416L 47.304001 51.507999C 49.743999 50.776001 50.964001 48.334 50.234001 46.138C 49.501999 43.698002 47.060001 42.476002 44.862 43.208L 39.566002 44.875999M 28.9 40.010002L 28.9 45.653999M 38.900002 40.010002L 38.900002 44.59"></path></g></g></g><g id="g-root-ic_lipo_8vvga9lpkutl-stroke" data-item-order="0" transform="translate(446, 266)"><g id="ic_lipo_8vvga9lpkutl-stroke" fill="none" stroke-linecap="round" stroke-linejoin="round" stroke-miterlimit="4" stroke="#fb6762" stroke-width="2"><g><path d="M 34 13.823999C 34.11422 18.203335 31.659702 22.245716 27.721378 24.164366C 23.783054 26.083015 19.086964 25.524221 15.708838 22.734978C 12.330712 19.945736 10.893317 15.44025 12.032 11.21M 55.967999 11.21C 57.11293 15.442799 55.677731 19.954124 52.297588 22.747349C 48.91745 25.540573 44.216499 26.099945 40.275284 24.177898C 36.334068 22.25585 33.88031 18.207277 34 13.824M 15.322001 55.495998C 8.674 47.862 15.384 41.370003 15.854 22.875999M 53.169998 55.495998C 59.866001 47.807999 53.009998 41.276001 52.627998 22.470001M 19.799999 54.674C 20.566557 53.640015 21.267918 52.559254 21.900002 51.438004M 23.482 48.136002C 23.954029 46.938004 24.343603 45.709137 24.647999 44.458M 25.25 40.844002C 25.362324 39.561928 25.395721 38.27417 25.35 36.987999M 24.982 33.34C 24.762001 32.071999 24.501999 30.812 24.16 29.57M 48.200001 54.674C 47.432064 53.640972 46.730648 52.560123 46.099998 51.438M 44.507999 48.136002C 44.036625 46.937965 43.647717 45.709099 43.344002 44.458M 42.742001 40.844002C 42.6287 39.561985 42.595303 38.274162 42.641998 36.987999M 43.009998 33.34C 43.23 32.071999 43.490002 30.812 43.832001 29.57M 44.178001 18.264C 44.178001 18.816284 44.625713 19.264 45.178001 19.264C 45.730286 19.264 46.178001 18.816284 46.178001 18.264C 46.178001 17.711716 45.730286 17.264 45.178001 17.264C 44.625713 17.264 44.178001 17.711716 44.178001 18.264M 21.813999 18.264C 21.813999 18.816284 22.261715 19.264 22.813999 19.264C 23.366283 19.264 23.813999 18.816284 23.813999 18.264C 23.813999 17.711716 23.366283 17.264 22.813999 17.264C 22.261715 17.264 21.813999 17.711716 21.813999 18.264"></path></g></g></g><g id="g-root-tx_marma_vb350xlpi0p7-stroke" data-item-order="0" transform="translate(506, 278)"></g><g id="g-root-tx_herbalre_18lx6b5lpi2a2-stroke" data-item-order="0" transform="translate(14, 410)"></g><g id="g-root-ic_jar_1uu9n3llpi22o-stroke" data-item-order="0" transform="translate(182, 398)"><g id="ic_jar_1uu9n3llpi22o-stroke" fill="none" stroke-linecap="round" stroke-linejoin="round" stroke-miterlimit="4" stroke="#a6da37" stroke-width="2"><g><path d="M 12.75976 34.629601L 55.239799 34.629601M 15.591801 34.629601L 52.407799 34.629601C 52.408401 38.002197 51.481201 41.3102 49.728001 44.191601C 47.974998 47.0728 45.4632 49.416599 42.467602 50.9664L 42.467602 55.980202L 25.532139 55.980202L 25.532139 50.9664C 22.53652 49.416599 20.024761 47.0728 18.271599 44.191601C 16.518421 41.3102 15.59136 38.002197 15.591801 34.629601ZM 10 10M 36.621002 34.621002L 46.3964 18.328941C 46.777 17.69462 47.362801 17.20916 48.056801 16.9527C 48.750599 16.696239 49.5112 16.68412 50.213001 16.91836L 50.213001 16.91836C 50.618401 17.053421 50.993198 17.267059 51.3158 17.547039C 51.638599 17.82704 51.902802 18.1679 52.0938 18.55014C 52.284599 18.932381 52.398399 19.34848 52.4282 19.774681C 52.458199 20.20088 52.403999 20.628799 52.268398 21.033981L 47.737801 34.621002M 20.039059 19.303841C 24.103241 21.74234 27.259319 24.634861 29.25374 28.23506M 15.44172 25.12466C 16.86664 26.34852 18.70126 26.989 20.578281 26.91786C 22.455299 26.846701 24.236179 26.069201 25.564381 24.741001C 26.892599 23.4128 27.670099 21.63192 27.74124 19.7549C 27.81238 17.87788 27.171921 16.043261 25.948059 14.61832C 23.037701 11.737084 12.7642 12.02812 12.7642 12.02812C 12.7642 12.02812 12.53136 22.214321 15.44172 25.12466Z"></path></g></g></g></g></g><path id="wqu1h6pixavpr" d="M65.283 12.757a.35.35 0 0 0 .584.157l5.203-5.141-6.183 3.523.396 1.461zm-2.216-11.7a.35.35 0 0 0-.522.305v3.111l3.276-1.868-2.754-1.548zm3.728 2.105l-4.25 2.421v2.445l6.391-3.644-2.141-1.222zm4.708 3.303a.35.35 0 0 0 0-.609l-1.592-.9-7.365 4.199v1.782a.35.35 0 0 0 .523.305l8.435-4.777z M44.542 2.513c0-.433.355-.783.792-.783s.792.35.792.783-.355.783-.792.783-.792-.35-.792-.783zm59.171 0c0-.433.355-.783.792-.783s.792.35.792.783-.355.783-.792.783-.792-.35-.792-.783zm-85.951 7.636h-1.27v-.487c-.276.201-.864.609-1.881.609-1.202 0-2.274-.794-2.137-2.078.118-1.106 1.153-1.584 1.848-1.727l2.17-.345c0-.539-.29-.956-1.064-1.006s-1.21.305-1.571 1.017l-1.124-.605c1.218-2.631 5.029-1.764 5.029.414v4.207zm-1.27-2.86c.006.396-.062 1.112-.819 1.59-.587.37-1.841.299-1.903-.395-.049-.555.461-.791.906-.898l1.816-.297zm72.662 2.86h-1.27v-.487c-.276.201-.864.609-1.881.609-1.202 0-2.274-.794-2.137-2.078.118-1.106 1.153-1.584 1.848-1.727l2.17-.345c0-.539-.29-.956-1.064-1.006s-1.21.305-1.571 1.017l-1.124-.605c1.218-2.631 5.029-1.764 5.029.414v4.207zm-1.27-2.86c.006.396-.062 1.112-.82 1.59-.587.37-1.841.299-1.903-.395-.049-.555.461-.791.906-.898l1.816-.297zM99.096 10.149H97.85v-8.45h1.246v4.895l2.68-2.559h1.738l-2.633 2.535 2.715 3.578h-1.556l-2.077-2.707-.867.844v1.863zm6.053-6.114h-1.255v6.113h1.255V4.035zm-59.2 0h-1.255v6.113h1.255V4.035zm5.584 6.113V1.697h1.255v2.695c.361-.346 1-.485 1.47-.485 1.452 0 2.477 1.082 2.457 2.448v3.792h-1.27v-3.68c0-.408-.214-1.339-1.315-1.339-.968 0-1.342.756-1.342 1.339v3.681h-1.255zm-4.76-4.894V4.039h.621a.45.45 0 0 0 .45-.45v-.855h1.251v1.305h1.309v1.215h-1.309v3.109c0 .293.105.664.648.664.365 0 .531-.035.736-.07v1.137s-.361.113-.857.113c-1.398 0-1.777-1.051-1.777-1.788V5.254h-1.071zM36.528 4.039h-1.394l2.191 6.106h1.125l1.234-3.918 1.238 3.918h1.129l2.188-6.106h-1.383l-1.359 3.93-1.256-3.93h-1.124l-1.242 3.957-1.348-3.957zM26.212 7.141c-.02 1.566 1.187 3.129 3.223 3.129 1.566 0 2.383-.918 2.734-1.719L31.172 8c-.315.399-.801 1.094-1.738 1.094-1.145 0-1.825-.781-1.891-1.52h4.625c.074-.284.148-.995-.03-1.559-.336-1.064-1.221-2.102-2.839-2.102s-3.088 1.152-3.088 3.227zm1.363-.75h3.348c-.055-.43-.566-1.301-1.623-1.301a1.79 1.79 0 0 0-1.725 1.301zm-8.758.75c.038 1.758 1.277 3.133 3.145 3.133 1.074 0 1.723-.477 1.961-.672v.547h1.242V1.703h-1.258v2.888c-.414-.36-1.062-.68-1.93-.68-1.91 0-3.198 1.473-3.16 3.23zm1.309-.08c0 1.119.723 1.978 1.836 1.978a1.88 1.88 0 0 0 1.94-1.904c0-1.371-1.011-1.99-1.972-1.99s-1.805.798-1.805 1.916zm76.683-.028C96.771 5.275 95.532 3.9 93.664 3.9c-1.074 0-1.723.477-1.961.672v-.547h-1.242v8.22h1.258V9.583c.414.36 1.063.68 1.93.68 1.91 0 3.198-1.473 3.16-3.23zm-1.309.08c0-1.119-.723-1.978-1.836-1.978a1.88 1.88 0 0 0-1.94 1.904c0 1.371 1.011 1.99 1.972 1.99S95.5 8.231 95.5 7.113zM106.441 10.173V4.036h1.254v.382c.361-.346 1-.485 1.47-.485 1.452 0 2.477 1.082 2.457 2.448v3.792h-1.27V6.492c0-.408-.214-1.339-1.315-1.339-.969 0-1.342.756-1.342 1.339v3.681h-1.254zm-30.383-.021V1.824h1.084l4.215 5.777V1.824h1.32v8.328h-1.094l-4.207-5.796v5.796h-1.319zM5.24 10.149H4V2.377h1.014l2.664 3.597 2.654-3.592h1.03v7.766h-1.256V4.762L7.678 8.068 5.24 4.742v5.407z" transform="translate(494, 510.12860107421875)" fill="#ababab88" stroke="none"></path></svg>