<?xml version="1.0" encoding="utf-8" standalone="yes"?>
<!DOCTYPE svg PUBLIC "-//W3C//DTD SVG 1.1//EN" "http://www.w3.org/Graphics/SVG/1.1/DTD/svg11.dtd">
<svg width="840" height="744" viewBox="0 0 840 744" style="fill:none;stroke:none;fill-rule:evenodd;clip-rule:evenodd;stroke-linecap:round;stroke-linejoin:round;stroke-miterlimit:1.5;" version="1.1" xmlns="http://www.w3.org/2000/svg" xmlns:xlink="http://www.w3.org/1999/xlink"><style class="text-font-style fontImports" data-font-family="Roboto">@import url('https://fonts.googleapis.com/css2?family=Roboto:wght@400;700&amp;display=block');</style><g id="items" style="isolation: isolate"><g id="blend" style="mix-blend-mode: normal"><g id="g-root-cp_4_g-4_1lvifqpjhcvm5-fill" data-item-order="999486794" transform="translate(289.9990234375, 436.48699951171875)"><g id="cp_4_g-4_1lvifqpjhcvm5-fill" stroke="none" fill="#60436d"><g><path d="M 130 148.566L 250 79.2841L 250 10.002L 190.001 44.6419L 130.002 10L 70.0017 44.6411L 10.0016 10L 10 79.2841L 130 148.566Z"></path></g></g></g><g id="g-root-cp_3_g-3_1hfoxm9jhcwef-fill" data-item-order="999486798" transform="translate(410, 194.0009765625)"><g id="cp_3_g-3_1hfoxm9jhcwef-fill" stroke="none" fill="#3b5649"><g><path d="M 190 79.2821L 70.0001 10L 10 44.641L 70.0007 79.2812L 70.0007 148.563L 129.999 183.206L 129.999 252.488L 190 217.846L 190 79.2821Z"></path></g></g></g><g id="g-root-cp_1_g-1_1hfoxm9jhcweh-fill" data-item-order="999486802" transform="translate(230.00100708007812, 194)"><g id="cp_1_g-1_1hfoxm9jhcweh-fill" stroke="none" fill="#3e4e69"><g><path d="M 10 79.2821L 10 217.846L 70.0001 252.487L 69.9984 183.207L 129.999 148.565L 129.999 79.283L 190 44.6419L 130 10L 10 79.2821Z"></path></g></g></g><g id="g-root-cp_6_g-6_1hfoxm9jhcwej-fill" data-item-order="999486806" transform="translate(410.0009765625, 332.56396484375)"><g id="cp_6_g-6_1hfoxm9jhcwej-fill" stroke="none" fill="#4b533a"><g><path d="M 70.0001 79.2821L 70.0001 10L 129.998 44.6431L 129.998 113.925L 69.9994 148.565L 10 113.923L 70.0001 79.2821Z"></path></g></g></g><g id="g-root-cp_7_g-7_1d0hwkxjhcu11-fill" data-item-order="999486810" transform="translate(289.9990234375, 332.56500244140625)"><g id="cp_7_g-7_1d0hwkxjhcu11-fill" stroke="none" fill="#69425a"><g><path d="M 70.0017 79.2821L 70.0011 10L 10 44.6422L 10.0016 113.922L 70.0017 148.563L 130.002 113.922L 70.0017 79.2821Z"></path></g></g></g><g id="g-root-cp_2_g-2_1d0hwkxjhcu13-fill" data-item-order="999486814" transform="translate(350, 228.6419677734375)"><g id="cp_2_g-2_1d0hwkxjhcu13-fill" stroke="none" fill="#344e57"><g><path d="M 70.0001 10L 10 44.641L 10 113.923L 69.9992 79.2833L 130.001 113.922L 130.001 44.6402L 70.0001 10Z"></path></g></g></g><g id="g-root-cp_5_g-5_1d0hwkxjhcu15-fill" data-item-order="999486818" transform="translate(350, 297.92498779296875)"><g id="cp_5_g-5_1d0hwkxjhcu15-fill" stroke="none" fill="#545454"><g><path d="M 10.0006 113.922L 10 44.6399L 69.9992 10L 130.001 44.639L 130.001 113.921L 70.0007 148.562L 10.0006 113.922Z"></path></g></g></g><g id="g-root-tx_holistic_18koeghjhcutf-fill" data-item-order="1000000000" transform="translate(254, 38)"><g id="tx_holistic_18koeghjhcutf-fill" stroke="none" fill="#f4f4f4"><g><text style="font-style: normal; font-variant-caps: normal; font-weight: normal; font-width: normal; font-size: 20px; line-height: normal; font-family: Roboto, sans-serif; font-size-adjust: none; font-kerning: auto; font-variant-alternates: normal; font-variant-ligatures: normal; font-variant-numeric: normal; font-variant-east-asian: normal; font-variant-position: normal; font-variant-emoji: normal; font-feature-settings: normal; font-optical-sizing: auto; font-variation-settings: normal; white-space: pre;"><tspan x="14.02" y="34" dominant-baseline="ideographic">Holistic Health in Siddha Medicine</tspan></text></g></g></g><g id="g-root-tx_mentalan_8ydiy9jhl9u7-fill" data-item-order="1000000000" transform="translate(313.9989929199219, 86)"><g id="tx_mentalan_8ydiy9jhl9u7-fill" stroke="none" fill="#1ac3fb"><g><text style="font-style: normal; font-variant-caps: normal; font-weight: bold; font-width: normal; font-size: 20px; line-height: normal; font-family: Roboto, sans-serif; font-size-adjust: none; font-kerning: auto; font-variant-alternates: normal; font-variant-ligatures: normal; font-variant-numeric: normal; font-variant-east-asian: normal; font-variant-position: normal; font-variant-emoji: normal; font-feature-settings: normal; font-optical-sizing: auto; font-variation-settings: normal; white-space: pre;"><tspan x="13.5" y="34" dominant-baseline="ideographic">Mental and Physical </tspan><tspan x="68.5" y="58" dominant-baseline="ideographic">Balance</tspan></text></g></g></g><g id="g-root-tx_body_2qipdjhlbeo-fill" data-item-order="1000000000" transform="translate(14.001007080078125, 242)"><g id="tx_body_2qipdjhlbeo-fill" stroke="none" fill="#4f91fc"><g><text style="font-style: normal; font-variant-caps: normal; font-weight: bold; font-width: normal; font-size: 20px; line-height: normal; font-family: Roboto, sans-serif; font-size-adjust: none; font-kerning: auto; font-variant-alternates: normal; font-variant-ligatures: normal; font-variant-numeric: normal; font-variant-east-asian: normal; font-variant-position: normal; font-variant-emoji: normal; font-feature-settings: normal; font-optical-sizing: auto; font-variation-settings: normal; white-space: pre;"><tspan x="22" y="34" dominant-baseline="ideographic">Body</tspan></text></g></g></g><g id="g-root-ic_medi_1uqiywhjhigap-fill" data-item-order="1000000000" transform="translate(391.9990234375, 254)"></g><g id="g-root-tx_mind_hte241jhlc7a-fill" data-item-order="1000000000" transform="translate(614, 242)"><g id="tx_mind_hte241jhlc7a-fill" stroke="none" fill="#43dd93"><g><text style="font-style: normal; font-variant-caps: normal; font-weight: bold; font-width: normal; font-size: 20px; line-height: normal; font-family: Roboto, sans-serif; font-size-adjust: none; font-kerning: auto; font-variant-alternates: normal; font-variant-ligatures: normal; font-variant-numeric: normal; font-variant-east-asian: normal; font-variant-position: normal; font-variant-emoji: normal; font-feature-settings: normal; font-optical-sizing: auto; font-variation-settings: normal; white-space: pre;"><tspan x="12" y="34" dominant-baseline="ideographic">Mind</tspan></text></g></g></g><g id="g-root-ic_lipo_1cxdj5djhjx1e-fill" data-item-order="1000000000" transform="translate(278, 272)"></g><g id="g-root-ic_2_1qckw1djhh1xk-fill" data-item-order="1000000000" transform="translate(494, 272)"></g><g id="g-root-ic_appl_4hxjqpjhfnra-fill" data-item-order="1000000000" transform="translate(380, 338)"></g><g id="g-root-ic_3_147csohjhfpxj-fill" data-item-order="1000000000" transform="translate(302, 398)"></g><g id="g-root-ic_1_142zh2pjhe9z9-fill" data-item-order="1000000000" transform="translate(482, 398)"></g><g id="g-root-tx_physical_1q6ym9djhl9u3-fill" data-item-order="1000000000" transform="translate(74, 446)"><g id="tx_physical_1q6ym9djhl9u3-fill" stroke="none" fill="#f366bb"><g><text style="font-style: normal; font-variant-caps: normal; font-weight: bold; font-width: normal; font-size: 20px; line-height: normal; font-family: Roboto, sans-serif; font-size-adjust: none; font-kerning: auto; font-variant-alternates: normal; font-variant-ligatures: normal; font-variant-numeric: normal; font-variant-east-asian: normal; font-variant-position: normal; font-variant-emoji: normal; font-feature-settings: normal; font-optical-sizing: auto; font-variation-settings: normal; white-space: pre;"><tspan x="61" y="34" dominant-baseline="ideographic">Physical and </tspan><tspan x="13" y="58" dominant-baseline="ideographic">Spiritual Harmony</tspan></text></g></g></g><g id="g-root-tx_mentalan_18folrljhlc78-fill" data-item-order="1000000000" transform="translate(554, 446)"><g id="tx_mentalan_18folrljhlc78-fill" stroke="none" fill="#a6da37"><g><text style="font-style: normal; font-variant-caps: normal; font-weight: bold; font-width: normal; font-size: 20px; line-height: normal; font-family: Roboto, sans-serif; font-size-adjust: none; font-kerning: auto; font-variant-alternates: normal; font-variant-ligatures: normal; font-variant-numeric: normal; font-variant-east-asian: normal; font-variant-position: normal; font-variant-emoji: normal; font-feature-settings: normal; font-optical-sizing: auto; font-variation-settings: normal; white-space: pre;"><tspan x="12" y="34" dominant-baseline="ideographic">Mental and Spiritual </tspan><tspan x="12" y="58" dominant-baseline="ideographic">Connection</tspan></text></g></g></g><g id="g-root-ic_star_hydusxjhcutg-fill" data-item-order="1000000000" transform="translate(386, 470)"></g><g id="g-root-tx_spirit_v4ukhdjhlamd-fill" data-item-order="1000000000" transform="translate(314.0010070800781, 602)"><g id="tx_spirit_v4ukhdjhlamd-fill" stroke="none" fill="#cb68f9"><g><text style="font-style: normal; font-variant-caps: normal; font-weight: bold; font-width: normal; font-size: 20px; line-height: normal; font-family: Roboto, sans-serif; font-size-adjust: none; font-kerning: auto; font-variant-alternates: normal; font-variant-ligatures: normal; font-variant-numeric: normal; font-variant-east-asian: normal; font-variant-position: normal; font-variant-emoji: normal; font-feature-settings: normal; font-optical-sizing: auto; font-variation-settings: normal; white-space: pre;"><tspan x="15.44" y="34" dominant-baseline="ideographic">Spirit</tspan></text></g></g></g><g id="g-root-cp_4_g-4_1lvifqpjhcvm5-stroke" data-item-order="999486794" transform="translate(289.9990234375, 436.48699951171875)"><g id="cp_4_g-4_1lvifqpjhcvm5-stroke" fill="none" stroke-linecap="round" stroke-linejoin="round" stroke-miterlimit="4" stroke="#cb68f9" stroke-width="2"><g><path d="M 130.0001 148.5663L 250.0002 79.2841L 250.0002 10.002L 190.0012 44.6419L 130.0017 10L 70.0017 44.6411L 10.0016 10L 10 79.2841L 130.0001 148.5663Z"></path></g></g></g><g id="g-root-cp_3_g-3_1hfoxm9jhcwef-stroke" data-item-order="999486798" transform="translate(410, 194.0009765625)"><g id="cp_3_g-3_1hfoxm9jhcwef-stroke" fill="none" stroke-linecap="round" stroke-linejoin="round" stroke-miterlimit="4" stroke="#43dd93" stroke-width="2"><g><path d="M 190.0002 79.2821L 70.0001 10L 10 44.641L 70.0007 79.2812L 70.0007 148.5633L 129.9991 183.2064L 129.9991 252.4885L 190.0002 217.8463L 190.0002 79.2821Z"></path></g></g></g><g id="g-root-cp_1_g-1_1hfoxm9jhcweh-stroke" data-item-order="999486802" transform="translate(230.00100708007812, 194)"><g id="cp_1_g-1_1hfoxm9jhcweh-stroke" fill="none" stroke-linecap="round" stroke-linejoin="round" stroke-miterlimit="4" stroke="#4f91fc" stroke-width="2"><g><path d="M 10 79.2821L 10 217.8463L 70.0001 252.4873L 69.9984 183.2073L 129.9995 148.5651L 129.9995 79.283L 189.9995 44.6419L 130.0001 10L 10 79.2821Z"></path></g></g></g><g id="g-root-cp_6_g-6_1hfoxm9jhcwej-stroke" data-item-order="999486806" transform="translate(410.0009765625, 332.56396484375)"><g id="cp_6_g-6_1hfoxm9jhcwej-stroke" fill="none" stroke-linecap="round" stroke-linejoin="round" stroke-miterlimit="4" stroke="#a6da37" stroke-width="2"><g><path d="M 70.0001 79.2821L 70.0001 10L 129.9985 44.6431L 129.9985 113.9252L 69.9994 148.5651L 10 113.9231L 70.0001 79.2821Z"></path></g></g></g><g id="g-root-cp_7_g-7_1d0hwkxjhcu11-stroke" data-item-order="999486810" transform="translate(289.9990234375, 332.56500244140625)"><g id="cp_7_g-7_1d0hwkxjhcu11-stroke" fill="none" stroke-linecap="round" stroke-linejoin="round" stroke-miterlimit="4" stroke="#f366bb" stroke-width="2"><g><path d="M 70.0017 79.2821L 70.0011 10L 10 44.6422L 10.0016 113.9223L 70.0017 148.5633L 130.0017 113.9223L 70.0017 79.2821Z"></path></g></g></g><g id="g-root-cp_2_g-2_1d0hwkxjhcu13-stroke" data-item-order="999486814" transform="translate(350, 228.6419677734375)"><g id="cp_2_g-2_1d0hwkxjhcu13-stroke" fill="none" stroke-linecap="round" stroke-linejoin="round" stroke-miterlimit="4" stroke="#1ac3fb" stroke-width="2"><g><path d="M 70.0001 10L 10 44.641L 10 113.9231L 69.9992 79.2833L 130.0007 113.9223L 130.0007 44.6402L 70.0001 10Z"></path></g></g></g><g id="g-root-cp_5_g-5_1d0hwkxjhcu15-stroke" data-item-order="999486818" transform="translate(350, 297.92498779296875)"><g id="cp_5_g-5_1d0hwkxjhcu15-stroke" fill="none" stroke-linecap="round" stroke-linejoin="round" stroke-miterlimit="4" stroke="#b7b7b7" stroke-width="2"><g><path d="M 10.0006 113.922L 10 44.6399L 69.9992 10L 130.0007 44.639L 130.0007 113.9211L 70.0007 148.5621L 10.0006 113.922Z"></path></g></g></g><g id="g-root-tx_holistic_18koeghjhcutf-stroke" data-item-order="1000000000" transform="translate(254, 38)"></g><g id="g-root-tx_mentalan_8ydiy9jhl9u7-stroke" data-item-order="1000000000" transform="translate(313.9989929199219, 86)"></g><g id="g-root-tx_body_2qipdjhlbeo-stroke" data-item-order="1000000000" transform="translate(14.001007080078125, 242)"></g><g id="g-root-ic_medi_1uqiywhjhigap-stroke" data-item-order="1000000000" transform="translate(391.9990234375, 254)"><g id="ic_medi_1uqiywhjhigap-stroke" fill="none" stroke-linecap="round" stroke-linejoin="round" stroke-miterlimit="4" stroke="#1ac3fb" stroke-width="2"><g><path d="M 23.5 15.25C 23.5 17.735281 25.514719 19.75 28 19.75C 30.485283 19.75 32.5 17.735281 32.5 15.25C 32.5 12.764719 30.485283 10.75 28 10.75C 25.514719 10.75 23.5 12.764719 23.5 15.25M 19.389999 44.244999C 19.798513 44.874763 20.499352 45.253445 21.25 45.25C 21.655001 45.25 21.25 45.34 28 43.494999M 29.02 39.099998L 35.334999 40.824997C 36.429348 41.114822 37.137947 42.1726 36.989574 43.29491C 36.841202 44.417221 35.882065 45.25452 34.75 45.25C 34.314999 45.25 35.514999 45.535 17.665001 40.675003C 16.463781 40.351913 15.751913 39.116219 16.075001 37.915001C 16.398087 36.713779 17.633781 36.001915 18.835001 36.325001L 22.75 37.389999L 22.75 31C 21.435951 32.513103 19.501934 33.341965 17.5 33.25C 14.477352 33.379013 11.742727 31.46785 10.825 28.584999C 10.501913 27.383781 11.21378 26.148087 12.415 25.825001C 13.61622 25.501913 14.851913 26.213779 15.175 27.415001C 15.175 27.414999 15.55 28.75 17.5 28.75C 18.805 28.75 21.025 26.635 22.195 24.07C 22.560793 23.264145 23.365013 22.747566 24.25 22.75L 31.75 22.75C 32.634987 22.747566 33.439209 23.264145 33.805 24.07C 34.974998 26.635 37.195 28.75 38.5 28.75C 40.449997 28.75 40.824997 27.43 40.824997 27.414999C 41.148087 26.213779 42.383781 25.501913 43.585003 25.825001C 44.786221 26.148087 45.498089 27.383781 45.175003 28.585001C 44.257271 31.46785 41.522648 33.379013 38.5 33.25C 36.498066 33.341965 34.564045 32.513103 33.25 30.999998L 33.25 37.389999L 37.165001 36.324997C 38.184921 36.051678 39.257702 36.524364 39.744282 37.461479C 40.230858 38.398598 40.000324 39.548004 39.190002 40.225002M 22.75 28.75L 22.75 31M 33.25 28.75L 33.25 31"></path></g></g></g><g id="g-root-tx_mind_hte241jhlc7a-stroke" data-item-order="1000000000" transform="translate(614, 242)"></g><g id="g-root-ic_lipo_1cxdj5djhjx1e-stroke" data-item-order="1000000000" transform="translate(278, 272)"><g id="ic_lipo_1cxdj5djhjx1e-stroke" fill="none" stroke-linecap="round" stroke-linejoin="round" stroke-miterlimit="4" stroke="#4f91fc" stroke-width="2"><g><path d="M 34 13.823999C 34.11422 18.203335 31.659702 22.245716 27.721378 24.164366C 23.783054 26.083015 19.086964 25.524221 15.708838 22.734978C 12.330712 19.945736 10.893317 15.44025 12.032 11.21M 55.967999 11.21C 57.11293 15.442799 55.677731 19.954124 52.297588 22.747349C 48.91745 25.540573 44.216499 26.099945 40.275284 24.177898C 36.334068 22.25585 33.88031 18.207277 34 13.824M 15.322001 55.495998C 8.674 47.862 15.384 41.370003 15.854 22.875999M 53.169998 55.495998C 59.866001 47.807999 53.009998 41.276001 52.627998 22.470001M 19.799999 54.674C 20.566557 53.640015 21.267918 52.559254 21.900002 51.438004M 23.482 48.136002C 23.954029 46.938004 24.343603 45.709137 24.647999 44.458M 25.25 40.844002C 25.362324 39.561928 25.395721 38.27417 25.35 36.987999M 24.982 33.34C 24.762001 32.071999 24.501999 30.812 24.16 29.57M 48.200001 54.674C 47.432064 53.640972 46.730648 52.560123 46.099998 51.438M 44.507999 48.136002C 44.036625 46.937965 43.647717 45.709099 43.344002 44.458M 42.742001 40.844002C 42.6287 39.561985 42.595303 38.274162 42.641998 36.987999M 43.009998 33.34C 43.23 32.071999 43.490002 30.812 43.832001 29.57M 44.178001 18.264C 44.178001 18.816284 44.625713 19.264 45.178001 19.264C 45.730286 19.264 46.178001 18.816284 46.178001 18.264C 46.178001 17.711716 45.730286 17.264 45.178001 17.264C 44.625713 17.264 44.178001 17.711716 44.178001 18.264M 21.813999 18.264C 21.813999 18.816284 22.261715 19.264 22.813999 19.264C 23.366283 19.264 23.813999 18.816284 23.813999 18.264C 23.813999 17.711716 23.366283 17.264 22.813999 17.264C 22.261715 17.264 21.813999 17.711716 21.813999 18.264"></path></g></g></g><g id="g-root-ic_2_1qckw1djhh1xk-stroke" data-item-order="1000000000" transform="translate(494, 272)"><g id="ic_2_1qckw1djhh1xk-stroke" fill="none" stroke-linecap="round" stroke-linejoin="round" stroke-miterlimit="4" stroke="#43dd93" stroke-width="2"><g><path d="M 24.195179 56.5L 24.195179 48.1138C 22.345581 46.400398 21.05566 44.168999 20.49386 41.710999C 19.93206 39.252998 20.1245 36.6828 21.046059 34.335999C 21.9676 31.989201 23.57542 29.97468 25.659561 28.555719C 27.743679 27.136761 30.207199 26.37924 32.7286 26.38208C 42.284599 26.38208 44.347401 34.250198 47.754002 43.087399C 47.812401 43.239601 47.833 43.403599 47.813801 43.565399C 47.7948 43.727402 47.736599 43.882 47.644402 44.016399C 47.5522 44.150799 47.4286 44.260601 47.284599 44.336601C 47.1404 44.4128 46.98 44.452599 46.817001 44.452801L 44.2738 44.452801L 44.2738 48.468601C 44.2738 49.5336 43.8508 50.555 43.097599 51.308201C 42.344601 52.061199 41.3232 52.4842 40.257999 52.4842L 38.250198 52.4842L 38.250198 56.5M 39.013199 11.51709L 37.319401 16.812201L 41.458 16.812201L 39.7178 21.55298M 10 10M 53.562801 17.2768L 48.723801 20.013981L 51.762199 22.824219L 47.265598 25.122921M 24.76976 11.576622L 25.086 17.127041L 28.94982 15.64392L 29.024099 20.693439M 11.764262 18.585281L 14.69718 23.308121L 17.38072 20.157341L 19.861519 24.556061"></path></g></g></g><g id="g-root-ic_appl_4hxjqpjhfnra-stroke" data-item-order="1000000000" transform="translate(380, 338)"><g id="ic_appl_4hxjqpjhfnra-stroke" fill="none" stroke-linecap="round" stroke-linejoin="round" stroke-miterlimit="4" stroke="#b7b7b7" stroke-width="2"><g><path d="M 64.035004 67.895004C 63.865055 68.405243 63.387798 68.749588 62.849998 68.75L 17.15 68.75C 16.612202 68.749588 16.134945 68.405243 15.965 67.895004L 14.2975 62.895004C 14.17046 62.513577 14.234628 62.094326 14.469937 61.76836C 14.705247 61.442394 15.082975 61.2495 15.485 61.25L 64.514999 61.25C 64.917023 61.2495 65.294754 61.442394 65.53006 61.76836C 65.765373 62.094326 65.829536 62.513577 65.702499 62.895004ZM 13.75 53.75L 38.75 53.75M 26.25 53.75L 26.25 61.25M 41.25 23.75C 41.25 30.653561 46.846443 36.25 53.75 36.25C 60.653557 36.25 66.25 30.653561 66.25 23.75C 66.25 16.846441 60.653557 11.25 53.75 11.25C 46.846443 11.25 41.25 16.846441 41.25 23.75ZM 41.5 26.25L 65.997498 26.25M 48.75 20L 55 26.25M 48.75 35.2075L 48.75 61.25M 58.75 35.2075L 58.75 61.25M 35.174999 47.4375C 36.577702 45.165123 37.377899 42.572647 37.5 39.904999C 37.5 35.404999 34.557499 31.615 31.025 31.615C 27.4925 31.615 27.5 33.137501 26.317499 33.137501C 25.135 33.137501 25.140001 31.615 21.6075 31.615C 18.075001 31.615 15.1325 35.392498 15.1325 39.904999C 15.257193 42.59782 16.072483 45.213291 17.5 47.5M 26.25 33.134998L 26.25 31.615C 25.984642 29.744865 26.494713 27.84749 27.662029 26.362503C 28.829346 24.877514 30.552595 23.933792 32.432499 23.75"></path></g></g></g><g id="g-root-ic_3_147csohjhfpxj-stroke" data-item-order="1000000000" transform="translate(302, 398)"><g id="ic_3_147csohjhfpxj-stroke" fill="none" stroke-linecap="round" stroke-linejoin="round" stroke-miterlimit="4" stroke="#f366bb" stroke-width="2"><g><path d="M 27.849998 20.123501C 30.335281 20.123501 32.350002 18.108782 32.350002 15.6235C 32.350002 13.138219 30.335281 11.1235 27.85 11.1235C 25.364719 11.1235 23.35 13.138219 23.35 15.6235C 23.35 18.108782 25.364719 20.123501 27.85 20.123501ZM 31.599998 29.2075L 28.75 27.1075C 28.299999 26.657499 27.549999 26.657499 26.950001 27.1075L 24.099998 29.2075M 27.849998 26.77L 27.849998 31.7575M 18.85 33.557499C 18.85 35.593002 21.85 35.807499 24.099998 34.307499C 24.849998 33.857498 27.25 32.057499 27.849998 31.7575C 28.450001 32.057499 30.849998 33.857498 31.599998 34.307499C 33.849998 35.807499 36.849998 35.219498 36.849998 33.557499L 36.849998 31.307499C 36.849998 26.3575 32.799999 22.307499 27.849998 22.307499C 22.900002 22.307499 18.85 26.3575 18.85 31.307499L 18.85 33.557499ZM 10 10M 29.74 38.495499L 19.851999 35.383003C 18.205 34.834 16.373501 35.7505 15.8245 37.580498C 15.2755 39.229 16.1905 41.060501 18.021999 41.608002L 27.908501 44.720497C 29.5555 45.271 31.3885 44.3545 31.935999 42.524502C 32.302002 40.875999 31.387001 39.044502 29.74 38.495499ZM 35.814999 41.814999L 37.978001 41.134003C 39.807999 40.5835 40.723 38.753502 40.175499 37.105C 39.626499 35.275002 37.795002 34.360001 36.1465 34.907501L 32.327499 36.1105"></path></g></g></g><g id="g-root-ic_1_142zh2pjhe9z9-stroke" data-item-order="1000000000" transform="translate(482, 398)"><g id="ic_1_142zh2pjhe9z9-stroke" fill="none" stroke-linecap="round" stroke-linejoin="round" stroke-miterlimit="4" stroke="#a6da37" stroke-width="2"><g><path d="M 17.013041 44.875L 17.013041 35.477501C 14.940385 33.55735 13.49491 31.05685 12.86536 28.302551C 12.235825 25.54825 12.451465 22.668011 13.484156 20.03812C 14.51683 17.40823 16.318541 15.15085 18.654011 13.560775C 20.989481 11.9707 23.750154 11.121826 26.5756 11.125009C 37.2841 11.125009 39.5956 19.942015 43.413101 29.844999C 43.4785 30.015551 43.50145 30.199299 43.48 30.38065C 43.458549 30.562 43.393452 30.735399 43.2901 30.886C 43.186752 31.036449 43.04845 31.159599 42.886902 31.244801C 42.725349 31.33 42.54565 31.374699 42.363098 31.375L 39.5131 31.375L 39.5131 35.875C 39.5131 37.06855 39.038952 38.213051 38.195049 39.05695C 37.351151 39.900852 36.206501 40.375 35.0131 40.375L 32.7631 40.375L 32.7631 44.875M 26.614151 30.875349C 25.646049 30.092201 24.856976 29.11075 24.300098 27.997C 23.743225 26.883249 23.431435 25.663 23.385746 24.41869C 23.416315 23.296677 23.668406 22.191774 24.127525 21.167545C 24.58663 20.143299 25.243752 19.219929 26.060951 18.45055C 26.208849 18.305635 26.4076 18.224455 26.614599 18.224455C 26.8216 18.224455 27.0205 18.305635 27.168251 18.45055C 27.985149 19.220169 28.64185 20.143616 29.100849 21.167814C 29.5597 22.192015 29.811699 23.296795 29.842449 24.41869C 29.7967 25.663 29.485001 26.883249 28.928051 27.997C 28.37125 29.11075 27.5821 30.092201 26.614151 30.875349L 26.614151 30.875349ZM 29.7568 23.288725C 31.2985 22.24015 33.122349 21.684385 34.986702 21.695005C 35.199402 21.69529 35.403099 21.779619 35.553703 21.929621C 35.7043 22.07962 35.789501 22.283079 35.790699 22.495628C 35.822502 23.614676 35.633202 24.728996 35.233597 25.77475C 34.834 26.8204 34.231899 27.7771 33.461952 28.589649C 32.549652 29.437151 31.466351 30.079451 30.285101 30.4732C 29.103849 30.866798 27.851801 31.00285 26.61355 30.872049M 23.472744 23.300619C 21.92248 22.234961 20.08087 21.6742 18.19978 21.695049C 17.986944 21.695049 17.782734 21.77923 17.631744 21.929214C 17.48074 22.079214 17.395195 22.282839 17.39377 22.495674C 17.36104 23.615034 17.54962 24.729836 17.948681 25.7761C 18.34774 26.8225 18.949434 27.77965 19.71925 28.592949C 20.640039 29.441799 21.73135 30.084549 22.920296 30.478149C 24.109241 30.87175 25.368549 31.0072 26.61385 30.875349"></path></g></g></g><g id="g-root-tx_physical_1q6ym9djhl9u3-stroke" data-item-order="1000000000" transform="translate(74, 446)"></g><g id="g-root-tx_mentalan_18folrljhlc78-stroke" data-item-order="1000000000" transform="translate(554, 446)"></g><g id="g-root-ic_star_hydusxjhcutg-stroke" data-item-order="1000000000" transform="translate(386, 470)"><g id="ic_star_hydusxjhcutg-stroke" fill="none" stroke-linecap="round" stroke-linejoin="round" stroke-miterlimit="4" stroke="#cb68f9" stroke-width="2"><g><path d="M 24 52.5C 38.362 52.5 41.799999 44.5 51 44.5C 54.313709 44.5 57 47.186295 57 50.5C 57 53.813709 54.313709 56.5 51 56.5L 17 56.5C 13.686292 56.5 11 53.813709 11 50.5C 11 47.186295 13.686292 44.5 17 44.5C 26.200001 44.5 29.638 52.5 44 52.5M 51 11.5C 50.821491 12.873093 51.290562 14.251251 52.269653 15.230345C 53.248749 16.209438 54.626907 16.678507 56 16.5C 52.77 16.487999 51.164001 18.220001 51 21.5C 51.195595 20.123178 50.732121 18.73455 49.748783 17.751217C 48.76545 16.767881 47.37682 16.304405 46 16.5C 47.37291 16.677671 48.750557 16.20833 49.729446 15.229443C 50.708332 14.250555 51.177673 12.872908 51.000004 11.5M 21 11.5C 20.978001 17.153999 23.736 20.366001 30 20.5C 24.186001 20.478001 21.296 23.6 21 29.5C 20.950001 23.931999 18.454 20.5 12 20.5C 17.776001 20.417999 20.978001 17.632 21 11.5M 34 20.5C 39.972191 20.500166 45.375298 24.043116 47.756123 29.520226C 50.136944 34.997337 49.041832 41.364971 44.968002 45.732002M 23.034 45.734001C 20.43737 42.959442 18.994938 39.300083 19 35.5C 19.000523 34.831177 19.044617 34.163094 19.132 33.5"></path></g></g></g><g id="g-root-tx_spirit_v4ukhdjhlamd-stroke" data-item-order="1000000000" transform="translate(314.0010070800781, 602)"></g></g></g><path id="w1q7m59tl5iwb2" d="M65.283 12.757a.35.35 0 0 0 .584.157l5.203-5.141-6.183 3.523.396 1.461zm-2.216-11.7a.35.35 0 0 0-.522.305v3.111l3.276-1.868-2.754-1.548zm3.728 2.105l-4.25 2.421v2.445l6.391-3.644-2.141-1.222zm4.708 3.303a.35.35 0 0 0 0-.609l-1.592-.9-7.365 4.199v1.782a.35.35 0 0 0 .523.305l8.435-4.777z M44.542 2.513c0-.433.355-.783.792-.783s.792.35.792.783-.355.783-.792.783-.792-.35-.792-.783zm59.171 0c0-.433.355-.783.792-.783s.792.35.792.783-.355.783-.792.783-.792-.35-.792-.783zm-85.951 7.636h-1.27v-.487c-.276.201-.864.609-1.881.609-1.202 0-2.274-.794-2.137-2.078.118-1.106 1.153-1.584 1.848-1.727l2.17-.345c0-.539-.29-.956-1.064-1.006s-1.21.305-1.571 1.017l-1.124-.605c1.218-2.631 5.029-1.764 5.029.414v4.207zm-1.27-2.86c.006.396-.062 1.112-.819 1.59-.587.37-1.841.299-1.903-.395-.049-.555.461-.791.906-.898l1.816-.297zm72.662 2.86h-1.27v-.487c-.276.201-.864.609-1.881.609-1.202 0-2.274-.794-2.137-2.078.118-1.106 1.153-1.584 1.848-1.727l2.17-.345c0-.539-.29-.956-1.064-1.006s-1.21.305-1.571 1.017l-1.124-.605c1.218-2.631 5.029-1.764 5.029.414v4.207zm-1.27-2.86c.006.396-.062 1.112-.82 1.59-.587.37-1.841.299-1.903-.395-.049-.555.461-.791.906-.898l1.816-.297zM99.096 10.149H97.85v-8.45h1.246v4.895l2.68-2.559h1.738l-2.633 2.535 2.715 3.578h-1.556l-2.077-2.707-.867.844v1.863zm6.053-6.114h-1.255v6.113h1.255V4.035zm-59.2 0h-1.255v6.113h1.255V4.035zm5.584 6.113V1.697h1.255v2.695c.361-.346 1-.485 1.47-.485 1.452 0 2.477 1.082 2.457 2.448v3.792h-1.27v-3.68c0-.408-.214-1.339-1.315-1.339-.968 0-1.342.756-1.342 1.339v3.681h-1.255zm-4.76-4.894V4.039h.621a.45.45 0 0 0 .45-.45v-.855h1.251v1.305h1.309v1.215h-1.309v3.109c0 .293.105.664.648.664.365 0 .531-.035.736-.07v1.137s-.361.113-.857.113c-1.398 0-1.777-1.051-1.777-1.788V5.254h-1.071zM36.528 4.039h-1.394l2.191 6.106h1.125l1.234-3.918 1.238 3.918h1.129l2.188-6.106h-1.383l-1.359 3.93-1.256-3.93h-1.124l-1.242 3.957-1.348-3.957zM26.212 7.141c-.02 1.566 1.187 3.129 3.223 3.129 1.566 0 2.383-.918 2.734-1.719L31.172 8c-.315.399-.801 1.094-1.738 1.094-1.145 0-1.825-.781-1.891-1.52h4.625c.074-.284.148-.995-.03-1.559-.336-1.064-1.221-2.102-2.839-2.102s-3.088 1.152-3.088 3.227zm1.363-.75h3.348c-.055-.43-.566-1.301-1.623-1.301a1.79 1.79 0 0 0-1.725 1.301zm-8.758.75c.038 1.758 1.277 3.133 3.145 3.133 1.074 0 1.723-.477 1.961-.672v.547h1.242V1.703h-1.258v2.888c-.414-.36-1.062-.68-1.93-.68-1.91 0-3.198 1.473-3.16 3.23zm1.309-.08c0 1.119.723 1.978 1.836 1.978a1.88 1.88 0 0 0 1.94-1.904c0-1.371-1.011-1.99-1.972-1.99s-1.805.798-1.805 1.916zm76.683-.028C96.771 5.275 95.532 3.9 93.664 3.9c-1.074 0-1.723.477-1.961.672v-.547h-1.242v8.22h1.258V9.583c.414.36 1.063.68 1.93.68 1.91 0 3.198-1.473 3.16-3.23zm-1.309.08c0-1.119-.723-1.978-1.836-1.978a1.88 1.88 0 0 0-1.94 1.904c0 1.371 1.011 1.99 1.972 1.99S95.5 8.231 95.5 7.113zM106.441 10.173V4.036h1.254v.382c.361-.346 1-.485 1.47-.485 1.452 0 2.477 1.082 2.457 2.448v3.792h-1.27V6.492c0-.408-.214-1.339-1.315-1.339-.969 0-1.342.756-1.342 1.339v3.681h-1.254zm-30.383-.021V1.824h1.084l4.215 5.777V1.824h1.32v8.328h-1.094l-4.207-5.796v5.796h-1.319zM5.24 10.149H4V2.377h1.014l2.664 3.597 2.654-3.592h1.03v7.766h-1.256V4.762L7.678 8.068 5.24 4.742v5.407z" transform="translate(704, 710)" fill="#ababab88" stroke="none"></path></svg>