<?xml version="1.0" encoding="utf-8" standalone="yes"?>
<!DOCTYPE svg PUBLIC "-//W3C//DTD SVG 1.1//EN" "http://www.w3.org/Graphics/SVG/1.1/DTD/svg11.dtd">
<svg width="636" height="562" viewBox="0 0 636 562" style="fill:none;stroke:none;fill-rule:evenodd;clip-rule:evenodd;stroke-linecap:round;stroke-linejoin:round;stroke-miterlimit:1.5;" version="1.1" xmlns="http://www.w3.org/2000/svg" xmlns:xlink="http://www.w3.org/1999/xlink"><style class="text-font-style fontImports" data-font-family="Roboto">@import url('https://fonts.googleapis.com/css2?family=Roboto:wght@400;700&amp;display=block');</style><g id="items" style="isolation: isolate"><g id="blend" style="mix-blend-mode: normal"><g id="g-root-sy_0_cu_1qapzr5k199n3-fill" data-item-order="-108034" transform="translate(242, 206)"></g><g id="g-root-sy_-1_cu_1uqjhvlk199mo-fill" data-item-order="-108029" transform="translate(151.57958984375, 98)"></g><g id="g-root-sy_3_cu_1luwhmpk19afd-fill" data-item-order="-108026" transform="translate(134, 152)"></g><g id="g-root-sy_2_cu_1luwhmpk19afe-fill" data-item-order="-108022" transform="translate(266, 386)"></g><g id="g-root-sy_1_cu_1luwhmpk19aff-fill" data-item-order="-108018" transform="translate(398, 152)"></g><g id="g-root-tx_componen_1cxe24hk1euiz-fill" data-item-order="0" transform="translate(86, 38)"><g id="tx_componen_1cxe24hk1euiz-fill" stroke="none" fill="#f4f4f4"><g><text style="font-style: normal; font-variant-caps: normal; font-weight: normal; font-width: normal; font-size: 20px; line-height: normal; font-family: Roboto, sans-serif; font-size-adjust: none; font-kerning: auto; font-variant-alternates: normal; font-variant-ligatures: normal; font-variant-numeric: normal; font-variant-east-asian: normal; font-variant-position: normal; font-variant-emoji: normal; font-feature-settings: normal; font-optical-sizing: auto; font-variation-settings: normal; white-space: pre;"><tspan x="12.31" y="34" dominant-baseline="ideographic">Components of Siddha Preventive Healthcare</tspan></text></g></g></g><g id="g-root-tx_bodyawar_de7k1tk1etxc-fill" data-item-order="0" transform="translate(14, 152)"><g id="tx_bodyawar_de7k1tk1etxc-fill" stroke="none" fill="#f4f4f4"><g><text style="font-style: normal; font-variant-caps: normal; font-weight: normal; font-width: normal; font-size: 20px; line-height: normal; font-family: Roboto, sans-serif; font-size-adjust: none; font-kerning: auto; font-variant-alternates: normal; font-variant-ligatures: normal; font-variant-numeric: normal; font-variant-east-asian: normal; font-variant-position: normal; font-variant-emoji: normal; font-feature-settings: normal; font-optical-sizing: auto; font-variation-settings: normal; white-space: pre;"><tspan x="71" y="34" dominant-baseline="ideographic">Body </tspan><tspan x="17" y="58" dominant-baseline="ideographic">Awareness</tspan></text></g></g></g><g id="g-root-ic_1_1luwhmpk19afg-fill" data-item-order="0" transform="translate(146, 164)"></g><g id="g-root-ic_cros_qqx0ldk1c2z2-fill" data-item-order="0" transform="translate(410, 164)"></g><g id="g-root-tx_regularc_1lsela9k1eww2-fill" data-item-order="0" transform="translate(458, 152)"><g id="tx_regularc_1lsela9k1eww2-fill" stroke="none" fill="#f4f4f4"><g><text style="font-style: normal; font-variant-caps: normal; font-weight: normal; font-width: normal; font-size: 20px; line-height: normal; font-family: Roboto, sans-serif; font-size-adjust: none; font-kerning: auto; font-variant-alternates: normal; font-variant-ligatures: normal; font-variant-numeric: normal; font-variant-east-asian: normal; font-variant-position: normal; font-variant-emoji: normal; font-feature-settings: normal; font-optical-sizing: auto; font-variation-settings: normal; white-space: pre;"><tspan x="12" y="34" dominant-baseline="ideographic">Regular Check-</tspan><tspan x="12" y="58" dominant-baseline="ideographic">ups</tspan></text></g></g></g><g id="g-root-ic_shie_1hd7k8xk1dgcv-fill" data-item-order="0" transform="translate(266, 230)"></g><g id="g-root-ic_drin_909h6pk1aosl-fill" data-item-order="0" transform="translate(278, 398)"></g><g id="g-root-tx_lifestyl_2r1ohk1evi9-fill" data-item-order="0" transform="translate(224, 446)"><g id="tx_lifestyl_2r1ohk1evi9-fill" stroke="none" fill="#f4f4f4"><g><text style="font-style: normal; font-variant-caps: normal; font-weight: normal; font-width: normal; font-size: 20px; line-height: normal; font-family: Roboto, sans-serif; font-size-adjust: none; font-kerning: auto; font-variant-alternates: normal; font-variant-ligatures: normal; font-variant-numeric: normal; font-variant-east-asian: normal; font-variant-position: normal; font-variant-emoji: normal; font-feature-settings: normal; font-optical-sizing: auto; font-variation-settings: normal; white-space: pre;"><tspan x="38.09" y="34" dominant-baseline="ideographic">Lifestyle </tspan><tspan x="15.09" y="58" dominant-baseline="ideographic">Modifications</tspan></text></g></g></g><g id="g-root-sy_0_cu_1qapzr5k199n3-stroke" data-item-order="-108034" transform="translate(242, 206)"><g id="sy_0_cu_1qapzr5k199n3-stroke" fill="none" stroke-linecap="round" stroke-linejoin="round" stroke-miterlimit="4" stroke="#43dd93" stroke-width="2"><g><path d="M 102.3346 39.636C 112.4768 64.1213 100.8493 92.1925 76.364 102.3346C 51.8787 112.4768 23.8075 100.8493 13.6654 76.364C 3.5232 51.8787 15.1507 23.8075 39.636 13.6654C 64.1213 3.5232 92.1925 15.1507 102.3346 39.636Z"></path></g></g></g><g id="g-root-sy_-1_cu_1uqjhvlk199mo-stroke" data-item-order="-108029" transform="translate(151.57958984375, 98)"><g id="sy_-1_cu_1uqjhvlk199mo-stroke" fill="none" stroke-linecap="round" stroke-linejoin="round" stroke-miterlimit="4" stroke="#f4f4f4" stroke-width="2" stroke-dasharray="5.0, 7.0"><g><path d="M 11.422363 111.47169C 19.438063 142.23609 60.676263 184.62309 118.420363 217.96159C 193.033963 261.03979 266.951763 272.69769 283.520263 244.00009C 300.088863 215.30249 253.033963 157.11679 178.420363 114.03859C 122.576663 81.79719 67.122863 67.15629 35.810363 73.86169M 261.0282 73.86119C 229.7153 67.15689 174.2628 81.79789 118.4204 114.03849C 43.8067 157.11669 -3.2481 215.30249 13.3204 244.00009C 29.889 272.69759 103.8067 261.03979 178.4204 217.96159C 236.1658 184.62229 277.4045 142.23409 285.4189 111.46959M 126.80961 311.5748C 104.35101 289.0219 88.42041 232.3479 88.42041 166C 88.42041 79.8436 115.28331 10 148.42041 10C 181.55751 10 208.42041 79.8436 208.42041 166C 208.42041 232.3476 192.48991 289.0212 170.03151 311.5744"></path></g></g></g><g id="g-root-sy_3_cu_1luwhmpk19afd-stroke" data-item-order="-108026" transform="translate(134, 152)"><g id="sy_3_cu_1luwhmpk19afd-stroke" fill="none" stroke-linecap="round" stroke-linejoin="round" stroke-miterlimit="4" stroke="#4f91fc" stroke-width="2"><g><path d="M 56.167315 43.182015C 51.096215 55.424715 37.060715 61.238415 24.818015 56.167315C 12.575315 51.096215 6.761615 37.060715 11.832715 24.818015C 16.903815 12.575315 30.939315 6.761615 43.182015 11.832715C 55.424715 16.903815 61.238415 30.939315 56.167315 43.182015Z"></path></g></g></g><g id="g-root-sy_2_cu_1luwhmpk19afe-stroke" data-item-order="-108022" transform="translate(266, 386)"><g id="sy_2_cu_1luwhmpk19afe-stroke" fill="none" stroke-linecap="round" stroke-linejoin="round" stroke-miterlimit="4" stroke="#1ac3fb" stroke-width="2"><g><path d="M 56.1673 24.818C 61.2384 37.0607 55.4247 51.0962 43.182 56.1673C 30.9393 61.2384 16.9038 55.4247 11.8327 43.182C 6.7616 30.9393 12.5753 16.9038 24.818 11.8327C 37.0607 6.7616 51.0962 12.5753 56.1673 24.818Z"></path></g></g></g><g id="g-root-sy_1_cu_1luwhmpk19aff-stroke" data-item-order="-108018" transform="translate(398, 152)"><g id="sy_1_cu_1luwhmpk19aff-stroke" fill="none" stroke-linecap="round" stroke-linejoin="round" stroke-miterlimit="4" stroke="#a6da37" stroke-width="2"><g><path d="M 24.818 56.167315C 12.5753 51.096215 6.7616 37.060715 11.8327 24.818015C 16.9038 12.575315 30.9393 6.761615 43.182 11.832715C 55.4247 16.903815 61.2384 30.939315 56.1673 43.182015C 51.0962 55.424715 37.0607 61.238415 24.818 56.167315Z"></path></g></g></g><g id="g-root-tx_componen_1cxe24hk1euiz-stroke" data-item-order="0" transform="translate(86, 38)"></g><g id="g-root-tx_bodyawar_de7k1tk1etxc-stroke" data-item-order="0" transform="translate(14, 152)"></g><g id="g-root-ic_1_1luwhmpk19afg-stroke" data-item-order="0" transform="translate(146, 164)"><g id="ic_1_1luwhmpk19afg-stroke" fill="none" stroke-linecap="round" stroke-linejoin="round" stroke-miterlimit="4" stroke="#4f91fc" stroke-width="2"><g><path d="M 21.95 16.75C 23.606855 16.75 24.95 15.406854 24.95 13.75C 24.95 12.093146 23.606855 10.75 21.95 10.75C 20.293146 10.75 18.95 12.093146 18.95 13.75C 18.95 15.406854 20.293146 16.75 21.95 16.75ZM 23.16 28.997L 16.568 26.922C 15.47 26.556 14.249 27.167 13.883 28.387C 13.517 29.486 14.127 30.707 15.348 31.072L 21.939 33.147C 23.037 33.514 24.259 32.903 24.624 31.683C 24.868 30.584 24.258 29.363 23.16 28.997ZM 16.45 26.906L 16.45 23.706C 16.45 20.706 18.95 18.206 21.95 18.206C 24.95 18.206 27.45 20.706 27.45 23.706L 27.45 26.602M 19.45 25.007L 19.45 27.828M 24.45 25.007L 24.45 27.297M 10 10M 27.21 31.21L 28.652 30.756C 29.872 30.389 30.482 29.169 30.117 28.07C 29.751 26.85 28.53 26.24 27.431 26.605L 24.933 27.392"></path></g></g></g><g id="g-root-ic_cros_qqx0ldk1c2z2-stroke" data-item-order="0" transform="translate(410, 164)"><g id="ic_cros_qqx0ldk1c2z2-stroke" fill="none" stroke-linecap="round" stroke-linejoin="round" stroke-miterlimit="4" stroke="#a6da37" stroke-width="2"><g><path d="M 30.2982 11.14371L 27.2332 11.14371L 27.2332 13.74686L 24.6301 13.74686L 24.6301 16.81186L 27.2332 16.81186L 27.2332 19.4149L 30.2982 19.4149L 30.2982 16.81186L 32.9013 16.81186L 32.9013 13.74686L 30.2982 13.74686L 30.2982 11.14371ZM 11.09888 11.50259L 11.09888 32.8563L 32.4526 32.8563M 10 10M 14.24023 26.6113L 18.19148 29.7769L 24.5135 22.1795L 29.6168 26.6113M 18.16919 13.207L 14.88637 13.207M 19.89331 16.48972L 14.88656 16.48972"></path></g></g></g><g id="g-root-tx_regularc_1lsela9k1eww2-stroke" data-item-order="0" transform="translate(458, 152)"></g><g id="g-root-ic_shie_1hd7k8xk1dgcv-stroke" data-item-order="0" transform="translate(266, 230)"><g id="ic_shie_1hd7k8xk1dgcv-stroke" fill="none" stroke-linecap="round" stroke-linejoin="round" stroke-miterlimit="4" stroke="#43dd93" stroke-width="2"><g><path d="M 28.379999 45C 22.422565 45.006191 17.135729 41.183327 15.27504 35.523918C 13.414351 29.864513 15.401191 23.650223 20.200001 20.119999C 20.200001 20.119999 24.700001 15.6 35.739998 15.6C 40.7896 15.842422 45.79855 14.590185 50.139999 12C 50.439999 11.84 50.799999 11.84 51.099998 12C 51.405212 12.144193 51.62146 12.427551 51.679996 12.76C 52.619999 18.459999 53.779999 19.24 50.459999 28.6M 34 27.540001C 28.28862 29.108318 22.936192 31.770948 18.240002 35.380001L 11 41.48M 45.540001 37L 45.540001 49M 51 43L 39 43M 46 56.799999L 47.099998 56.380001C 52.360001 54.380001 56.919998 49.32 56.919998 43.700001L 56.919998 36.919998C 56.919998 36.080002 56.919998 35.34 56.220001 34.919998C 52.57476 33.637848 48.743919 32.962212 44.879997 32.919998C 41.222675 32.943977 37.59906 33.621292 34.18 34.919998C 33.389046 35.264549 32.889294 36.0578 32.919998 36.919998L 32.919998 43.700001C 32.919998 49.32 37.400002 54.360001 42.66 56.380001L 43.759998 56.799999C 44.484123 57.059494 45.275879 57.059494 46 56.799999Z"></path></g></g></g><g id="g-root-ic_drin_909h6pk1aosl-stroke" data-item-order="0" transform="translate(278, 398)"><g id="ic_drin_909h6pk1aosl-stroke" fill="none" stroke-linecap="round" stroke-linejoin="round" stroke-miterlimit="4" stroke="#1ac3fb" stroke-width="2"><g><path d="M 15.80005 24.5C 17.4569 24.5 18.80005 23.1568 18.80005 21.5C 18.80005 19.84312 17.4569 18.49997 15.80005 18.49997C 14.14319 18.49997 12.80005 19.84312 12.80005 21.5C 12.80005 23.1568 14.14319 24.5 15.80005 24.5ZM 10.800049 33.2L 10.800049 29.8C 10.800049 27.2 12.70005 24.9 15.30005 24.6C 18.30005 24.3 20.8 26.7 20.8 29.6L 22.6 29.6C 23.6 29.6 24.4 30.4 24.4 31.4C 24.4 32.4 23.6 33.2 22.6 33.2L 20 33.2C 19.00005 33.2 18.20005 32.5 18.00005 31.6L 17.70004 30.1M 29.4 24.8L 26 20.3L 33 20.3L 29.4 24.8ZM 29.4 27.8L 29.4 24.8M 27.4 27.8L 31.4 27.8M 30.3 14.09998C 31.2389 14.09998 32 13.33891 32 12.40002C 32 11.46114 31.2389 10.700012 30.3 10.700012C 29.3611 10.700012 28.6 11.46114 28.6 12.40002C 28.6 13.33891 29.3611 14.09998 30.3 14.09998ZM 27.2298 17.81582C 27.7632 17.81582 28.1957 17.3834 28.1957 16.84996C 28.1957 16.31651 27.7632 15.88406 27.2298 15.88406C 26.6963 15.88406 26.2639 16.31651 26.2639 16.84996C 26.2639 17.3834 26.6963 17.81582 27.2298 17.81582Z"></path></g></g></g><g id="g-root-tx_lifestyl_2r1ohk1evi9-stroke" data-item-order="0" transform="translate(224, 446)"></g></g></g><path id="wqp24apklgw7c" d="M65.283 12.757a.35.35 0 0 0 .584.157l5.203-5.141-6.183 3.523.396 1.461zm-2.216-11.7a.35.35 0 0 0-.522.305v3.111l3.276-1.868-2.754-1.548zm3.728 2.105l-4.25 2.421v2.445l6.391-3.644-2.141-1.222zm4.708 3.303a.35.35 0 0 0 0-.609l-1.592-.9-7.365 4.199v1.782a.35.35 0 0 0 .523.305l8.435-4.777z M44.542 2.513c0-.433.355-.783.792-.783s.792.35.792.783-.355.783-.792.783-.792-.35-.792-.783zm59.171 0c0-.433.355-.783.792-.783s.792.35.792.783-.355.783-.792.783-.792-.35-.792-.783zm-85.951 7.636h-1.27v-.487c-.276.201-.864.609-1.881.609-1.202 0-2.274-.794-2.137-2.078.118-1.106 1.153-1.584 1.848-1.727l2.17-.345c0-.539-.29-.956-1.064-1.006s-1.21.305-1.571 1.017l-1.124-.605c1.218-2.631 5.029-1.764 5.029.414v4.207zm-1.27-2.86c.006.396-.062 1.112-.819 1.59-.587.37-1.841.299-1.903-.395-.049-.555.461-.791.906-.898l1.816-.297zm72.662 2.86h-1.27v-.487c-.276.201-.864.609-1.881.609-1.202 0-2.274-.794-2.137-2.078.118-1.106 1.153-1.584 1.848-1.727l2.17-.345c0-.539-.29-.956-1.064-1.006s-1.21.305-1.571 1.017l-1.124-.605c1.218-2.631 5.029-1.764 5.029.414v4.207zm-1.27-2.86c.006.396-.062 1.112-.82 1.59-.587.37-1.841.299-1.903-.395-.049-.555.461-.791.906-.898l1.816-.297zM99.096 10.149H97.85v-8.45h1.246v4.895l2.68-2.559h1.738l-2.633 2.535 2.715 3.578h-1.556l-2.077-2.707-.867.844v1.863zm6.053-6.114h-1.255v6.113h1.255V4.035zm-59.2 0h-1.255v6.113h1.255V4.035zm5.584 6.113V1.697h1.255v2.695c.361-.346 1-.485 1.47-.485 1.452 0 2.477 1.082 2.457 2.448v3.792h-1.27v-3.68c0-.408-.214-1.339-1.315-1.339-.968 0-1.342.756-1.342 1.339v3.681h-1.255zm-4.76-4.894V4.039h.621a.45.45 0 0 0 .45-.45v-.855h1.251v1.305h1.309v1.215h-1.309v3.109c0 .293.105.664.648.664.365 0 .531-.035.736-.07v1.137s-.361.113-.857.113c-1.398 0-1.777-1.051-1.777-1.788V5.254h-1.071zM36.528 4.039h-1.394l2.191 6.106h1.125l1.234-3.918 1.238 3.918h1.129l2.188-6.106h-1.383l-1.359 3.93-1.256-3.93h-1.124l-1.242 3.957-1.348-3.957zM26.212 7.141c-.02 1.566 1.187 3.129 3.223 3.129 1.566 0 2.383-.918 2.734-1.719L31.172 8c-.315.399-.801 1.094-1.738 1.094-1.145 0-1.825-.781-1.891-1.52h4.625c.074-.284.148-.995-.03-1.559-.336-1.064-1.221-2.102-2.839-2.102s-3.088 1.152-3.088 3.227zm1.363-.75h3.348c-.055-.43-.566-1.301-1.623-1.301a1.79 1.79 0 0 0-1.725 1.301zm-8.758.75c.038 1.758 1.277 3.133 3.145 3.133 1.074 0 1.723-.477 1.961-.672v.547h1.242V1.703h-1.258v2.888c-.414-.36-1.062-.68-1.93-.68-1.91 0-3.198 1.473-3.16 3.23zm1.309-.08c0 1.119.723 1.978 1.836 1.978a1.88 1.88 0 0 0 1.94-1.904c0-1.371-1.011-1.99-1.972-1.99s-1.805.798-1.805 1.916zm76.683-.028C96.771 5.275 95.532 3.9 93.664 3.9c-1.074 0-1.723.477-1.961.672v-.547h-1.242v8.22h1.258V9.583c.414.36 1.063.68 1.93.68 1.91 0 3.198-1.473 3.16-3.23zm-1.309.08c0-1.119-.723-1.978-1.836-1.978a1.88 1.88 0 0 0-1.94 1.904c0 1.371 1.011 1.99 1.972 1.99S95.5 8.231 95.5 7.113zM106.441 10.173V4.036h1.254v.382c.361-.346 1-.485 1.47-.485 1.452 0 2.477 1.082 2.457 2.448v3.792h-1.27V6.492c0-.408-.214-1.339-1.315-1.339-.969 0-1.342.756-1.342 1.339v3.681h-1.254zm-30.383-.021V1.824h1.084l4.215 5.777V1.824h1.32v8.328h-1.094l-4.207-5.796v5.796h-1.319zM5.24 10.149H4V2.377h1.014l2.664 3.597 2.654-3.592h1.03v7.766h-1.256V4.762L7.678 8.068 5.24 4.742v5.407z" transform="translate(500, 528)" fill="#ababab88" stroke="none"></path></svg>